<?xml version="1.0" encoding="utf-8"?>
<!-- Generator: Adobe Illustrator 23.0.5, SVG Export Plug-In . SVG Version: 6.00 Build 0)  -->
<svg version="1.1" xmlns="http://www.w3.org/2000/svg" xmlns:xlink="http://www.w3.org/1999/xlink" x="0px" y="0px"
	 viewBox="0 0 750 500" style="enable-background:new 0 0 750 500;" xml:space="preserve">
<style type="text/css">
	.st0{fill:url(#SVGID_1_);}
	.st1{enable-background:new    ;}
	.st2{fill:url(#SVGID_2_);}
	.st3{fill:url(#SVGID_3_);}
	.st4{opacity:0.5;fill:url(#SVGID_4_);}
	.st5{opacity:0.2;fill:#EE8F92;}
	.st6{fill:none;}
	.st7{fill:url(#SVGID_5_);}
	.st8{fill:url(#SVGID_6_);}
	.st9{fill:url(#SVGID_7_);}
	.st10{fill:url(#SVGID_8_);}
	.st11{opacity:0.8;}
	.st12{fill:url(#SVGID_9_);}
	.st13{fill:url(#SVGID_10_);}
	.st14{opacity:0.5;fill:url(#SVGID_11_);}
	.st15{opacity:0.3;fill:url(#SVGID_12_);}
	.st16{fill:url(#SVGID_13_);}
	.st17{opacity:0.5;}
	.st18{fill:url(#SVGID_14_);}
	.st19{opacity:0.5;fill:url(#SVGID_15_);}
	.st20{fill:url(#SVGID_16_);}
	.st21{fill:url(#SVGID_17_);}
	.st22{fill:url(#SVGID_18_);}
	.st23{fill:url(#SVGID_19_);}
	.st24{fill:url(#SVGID_20_);}
	.st25{fill:url(#SVGID_21_);}
	.st26{opacity:0.5;fill:url(#SVGID_22_);}
	.st27{opacity:0.3;fill:url(#SVGID_23_);}
	.st28{fill:url(#SVGID_24_);}
	.st29{fill:url(#SVGID_25_);}
	.st30{opacity:0.5;fill:url(#SVGID_26_);}
	.st31{fill:url(#SVGID_27_);}
	.st32{fill:url(#SVGID_28_);}
	.st33{fill:url(#SVGID_29_);}
	.st34{fill:url(#SVGID_30_);}
	.st35{fill:#FFFFFF;}
</style>
<g id="BACKGROUND">
	<linearGradient id="SVGID_1_" gradientUnits="userSpaceOnUse" x1="316.9256" y1="385.6657" x2="605.0014" y2="-287.2989">
		<stop  offset="6.655040e-02" style="stop-color:#2786EC;stop-opacity:0"/>
		<stop  offset="0.348" style="stop-color:#479DF2;stop-opacity:0"/>
		<stop  offset="0.8184" style="stop-color:#83C8FD;stop-opacity:0"/>
	</linearGradient>
	<rect class="st0" width="750" height="500"/>
</g>
<g id="OBJECTS">
	<g>
		<g>
			
				<image style="overflow:visible;" width="2954" height="1631" xlink:href="3231DC94.png"  transform="matrix(0.24 0 0 0.24 -93.88 254.4)">
			</image>
		</g>
		<g>
			<g class="st1">
				<linearGradient id="SVGID_2_" gradientUnits="userSpaceOnUse" x1="242.4268" y1="374.8642" x2="416.1055" y2="123.7172">
					<stop  offset="6.655080e-02" style="stop-color:#005BC3"/>
					<stop  offset="0.2702" style="stop-color:#2075D1"/>
					<stop  offset="0.7144" style="stop-color:#6FB8F4"/>
					<stop  offset="0.8184" style="stop-color:#83C8FD"/>
				</linearGradient>
				<path class="st2" d="M492.3,274.1c-4.6-20.3-12.7-41.3-24.4-62.3c-11.6-20.8-25.7-39.8-41.5-56.5
					c-15.8-16.7-33.4-31.4-51.8-43.3c-18.6-12.1-38.3-21.5-58.1-27.5c-20.2-6.2-40.7-8.9-60.4-7.2c-20.3,1.7-37.9,7.9-52.3,17.7
					c-14.9,10.2-26.4,24.3-33.9,41.6c-7.7,17.8-11.2,38.7-9.7,61.8c1.5,23.7,8.3,49.3,20.8,75.7c12.7,26.7,29.9,51.3,50,72.5
					c20.1,21.2,42.9,38.8,66.8,51.9c23.5,12.9,47.7,21.3,71,24.5c22.7,3.1,44.5,1.2,63.8-6.2c18.7-7.2,33.3-18.8,43.8-33.5
					c10.2-14.2,16.6-31.3,19.2-50.1C498.1,314.7,497,294.7,492.3,274.1z"/>
				
					<linearGradient id="SVGID_3_" gradientUnits="userSpaceOnUse" x1="248.2002" y1="378.653" x2="411.3664" y2="192.9587" gradientTransform="matrix(0.9932 -0.1163 0.1163 0.9932 -39.2005 16.0512)">
					<stop  offset="0.2157" style="stop-color:#005BC3"/>
					<stop  offset="0.4777" style="stop-color:#157ADB"/>
					<stop  offset="0.6028" style="stop-color:#208BE8"/>
					<stop  offset="0.9699" style="stop-color:#32A5FC"/>
				</linearGradient>
				<path class="st3" d="M436,296.2c-2.1,11.3-6.6,21.5-13.4,29.7c-6.9,8.4-16.2,14.8-27.9,18.4c-11.9,3.7-25,4.2-38.6,1.8
					c-13.8-2.4-28-7.8-41.7-15.6c-13.8-7.9-27-18.3-38.7-30.6c-11.7-12.3-21.8-26.5-29.4-42c-7.6-15.3-11.9-30.4-13.3-44.4
					c-1.4-13.8,0.1-26.5,4.1-37.4c3.9-10.8,10.3-19.8,18.9-26.5c8.4-6.6,18.8-11,31.1-12.6c12-1.6,24.7-0.4,37.3,3.2
					c12.5,3.5,25,9.2,36.9,16.7c11.8,7.4,23.1,16.7,33.2,27.4c10.1,10.7,19,22.8,26.2,36c7.3,13.3,12.1,26.7,14.6,39.4
					C437.9,272.8,438.1,285.1,436,296.2z"/>
				
					<linearGradient id="SVGID_4_" gradientUnits="userSpaceOnUse" x1="222.091" y1="362.7626" x2="446.1223" y2="194.1097" gradientTransform="matrix(0.9932 -0.1163 0.1163 0.9932 -39.2005 16.0512)">
					<stop  offset="0" style="stop-color:#FFFFFF;stop-opacity:0"/>
					<stop  offset="1" style="stop-color:#FFFFFF"/>
				</linearGradient>
				<path class="st4" d="M492.3,274.1c-4.6-20.3-12.7-41.3-24.4-62.3c-11.6-20.8-25.7-39.8-41.5-56.5
					c-15.8-16.7-33.4-31.4-51.8-43.3c-18.6-12.1-38.3-21.5-58.1-27.5c-20.2-6.2-40.7-8.9-60.4-7.2c-20.3,1.7-37.9,7.9-52.3,17.7
					c-14.9,10.2-26.4,24.3-33.9,41.6c-7.7,17.8-11.2,38.7-9.7,61.8c1.5,23.7,8.3,49.3,20.8,75.7c12.7,26.7,29.9,51.3,50,72.5
					c20.1,21.2,42.9,38.8,66.8,51.9c23.5,12.9,47.7,21.3,71,24.5c22.7,3.1,44.5,1.2,63.8-6.2c18.7-7.2,33.3-18.8,43.8-33.5
					c10.2-14.2,16.6-31.3,19.2-50.1C498.1,314.7,497,294.7,492.3,274.1z M494.9,332.9c-2.6,19.1-9,35.9-19.1,49.8
					c-10.9,15.1-25.5,26.3-43.5,33.2c-8.7,3.3-18,5.6-27.7,6.7c0,0,0,0,0,0c-11.3,1.3-23.4,1.1-35.7-0.5
					c-23.3-3.2-47.1-11.4-70.7-24.4c-24.2-13.3-46.6-30.7-66.6-51.8c-20.7-21.8-37.5-46.2-49.9-72.3c-12.1-25.6-19.1-51-20.7-75.5
					c-1.5-22.7,1.7-43.4,9.6-61.5c7.5-17.2,18.8-31.1,33.7-41.3c13.6-9.3,29.7-15.1,47.8-17.2c1.4-0.2,2.8-0.3,4.2-0.4
					c19-1.6,39.3,0.8,60.1,7.2c19.5,6,39,15.2,58,27.4c18.6,12.1,36,26.6,51.7,43.2c16.2,17.2,30.2,36.2,41.4,56.4
					c11.4,20.5,19.6,41.5,24.3,62.1C496.3,294.8,497.4,314.6,494.9,332.9z"/>
				<path class="st5" d="M466.4,268.2c-3.7-17.1-10.3-34.9-20.1-52.7c-9.7-17.6-21.7-33.8-35.1-48c-13.4-14.2-28.4-26.6-44.1-36.6
					c-15.8-10.1-32.6-18-49.3-22.9c-17-5-34.2-7-50.6-5.3c-16.8,1.7-31.3,7.2-43.1,15.8c-12.1,8.8-21.3,20.8-27.2,35.3
					c-6,14.9-8.6,32.3-7,51.3c1.6,19.4,7.3,40.4,17.7,61.9c10.5,21.7,24.6,41.7,41,59c16.4,17.3,35,31.7,54.4,42.6
					c19.2,10.7,39,17.9,58.2,20.8c18.8,2.9,36.8,1.7,53-4c15.7-5.5,28.1-14.8,37.2-26.7c8.8-11.6,14.5-25.7,17-41.3
					C470.8,302.3,470.2,285.6,466.4,268.2z M434.5,297.2c-2.1,11.3-6.6,21.5-13.4,29.7c-6.9,8.4-16.2,14.8-27.9,18.4
					c-11.9,3.7-25,4.2-38.6,1.8c-13.8-2.4-28-7.8-41.7-15.6c-13.8-7.9-27-18.3-38.7-30.6c-11.7-12.3-21.8-26.5-29.4-42
					c-7.6-15.3-11.9-30.4-13.3-44.4c-1.4-13.8,0.1-26.5,4.1-37.4c3.9-10.8,10.3-19.8,18.9-26.5c8.4-6.6,18.8-11,31.1-12.6
					c12-1.6,24.7-0.4,37.3,3.2c12.5,3.5,25,9.2,36.9,16.7c11.8,7.4,23.1,16.7,33.2,27.4c10.1,10.7,19,22.8,26.2,36
					c7.3,13.3,12.1,26.7,14.6,39.4C436.4,273.7,436.6,286,434.5,297.2z M390.9,227.5c-4.6-8.6-10.4-16.6-17-23.5
					c-6.6-6.9-13.9-13-21.6-17.7c-7.7-4.8-15.9-8.4-23.9-10.5c-8.1-2.1-16.3-2.7-23.9-1.5c-7.7,1.2-14.2,4.2-19.4,8.6
					c-5.2,4.4-9.1,10.3-11.3,17.2c-2.3,7-3,15-2,23.7c1.1,8.7,3.9,18.1,8.7,27.6c4.8,9.5,11.1,18.3,18.3,25.9
					c7.2,7.6,15.4,14.1,23.9,19c8.5,4.9,17.3,8.4,25.9,10.1c8.5,1.7,16.8,1.6,24.4-0.5c7.5-2.1,13.5-5.9,18.1-11
					c4.5-5.1,7.6-11.4,9.1-18.5c1.5-7.1,1.6-15,0-23.2C398.5,244.9,395.5,236.2,390.9,227.5z M364.7,255.1c-0.7,3-2.1,5.7-4.2,7.8
					c-2,2.1-4.7,3.6-7.9,4.4c-3.2,0.8-6.8,0.7-10.4,0c-3.6-0.8-7.3-2.3-10.8-4.4c-3.5-2.1-6.9-4.8-9.9-8c-3-3.2-5.6-6.8-7.6-10.7
					c-2-3.9-3.3-7.8-3.8-11.5c-0.5-3.7-0.3-7.1,0.6-10.1c0.9-3,2.4-5.5,4.6-7.5c2.1-2,4.9-3.3,8.1-4c3.3-0.6,6.7-0.4,10.3,0.4
					c3.5,0.9,7.1,2.4,10.4,4.4c3.4,2.1,6.6,4.7,9.5,7.7c2.9,3,5.4,6.5,7.4,10.3c2,3.8,3.3,7.6,3.9,11.1
					C365.6,248.7,365.5,252.1,364.7,255.1z"/>
				<path class="st6" d="M256.1,77.2c19.7-1.7,40.2,1,60.4,7.2c19.8,6,39.5,15.5,58.1,27.5c18.4,11.9,36,26.6,51.8,43.3
					c15.8,16.7,29.9,35.7,41.5,56.5c11.7,21,19.8,42.1,24.4,62.3c4.7,20.7,5.7,40.7,3.2,59c-2.6,18.8-9,35.9-19.2,50.1
					c-10.5,14.7-25.1,26.3-43.8,33.5c-19.3,7.4-41,9.3-63.8,6.2c-23.3-3.2-47.5-11.5-71-24.5c-23.8-13.1-46.6-30.7-66.8-51.9
					c-20.2-21.2-37.4-45.7-50-72.5c-12.5-26.4-19.2-52.1-20.8-75.7c-1.5-23.1,1.9-44.1,9.7-61.8c7.5-17.2,19-31.4,33.9-41.6
					C218.3,85,235.9,78.9,256.1,77.2z"/>
				
					<linearGradient id="SVGID_5_" gradientUnits="userSpaceOnUse" x1="220.494" y1="350.8795" x2="428.2977" y2="213.4608" gradientTransform="matrix(0.9932 -0.1163 0.1163 0.9932 -39.2005 16.0512)">
					<stop  offset="0" style="stop-color:#CEB9FF"/>
					<stop  offset="4.313779e-02" style="stop-color:#D0BCFF"/>
					<stop  offset="1" style="stop-color:#F2F9FF"/>
				</linearGradient>
				<path class="st7" d="M467.9,267.3c-3.7-17.1-10.3-34.9-20.1-52.7c-9.7-17.6-21.7-33.8-35.1-48c-13.4-14.2-28.4-26.6-44.1-36.6
					c-15.8-10.1-32.6-18-49.3-22.9c-17-5-34.2-7-50.6-5.3c-16.8,1.7-31.3,7.2-43.1,15.8c-12.1,8.8-21.3,20.8-27.2,35.3
					c-6,14.9-8.6,32.3-7,51.3c1.6,19.4,7.3,40.4,17.7,61.9c10.5,21.7,24.6,41.7,41,59c16.4,17.3,35,31.7,54.4,42.6
					c19.2,10.7,39,17.9,58.2,20.8c18.8,2.9,36.8,1.7,53-4c15.7-5.5,28.1-14.8,37.2-26.7c8.8-11.6,14.5-25.7,17-41.3
					C472.3,301.4,471.7,284.7,467.9,267.3z M436,296.2c-2.1,11.3-6.6,21.5-13.4,29.7c-6.9,8.4-16.2,14.8-27.9,18.4
					c-11.9,3.7-25,4.2-38.6,1.8c-13.8-2.4-28-7.8-41.7-15.6c-13.8-7.9-27-18.3-38.7-30.6c-11.7-12.3-21.8-26.5-29.4-42
					c-7.6-15.3-11.9-30.4-13.3-44.4c-1.4-13.8,0.1-26.5,4.1-37.4c3.9-10.8,10.3-19.8,18.9-26.5c8.4-6.6,18.8-11,31.1-12.6
					c12-1.6,24.7-0.4,37.3,3.2c12.5,3.5,25,9.2,36.9,16.7c11.8,7.4,23.1,16.7,33.2,27.4c10.1,10.7,19,22.8,26.2,36
					c7.3,13.3,12.1,26.7,14.6,39.4C437.9,272.8,438.1,285.1,436,296.2z M392.4,226.6c-4.6-8.6-10.4-16.6-17-23.5
					c-6.6-6.9-13.9-13-21.6-17.7c-7.7-4.8-15.9-8.4-23.9-10.5c-8.1-2.1-16.3-2.7-23.9-1.5c-7.7,1.2-14.2,4.2-19.4,8.6
					c-5.2,4.4-9.1,10.3-11.3,17.2c-2.3,7-3,15-2,23.7c1.1,8.7,3.9,18.1,8.7,27.6c4.8,9.5,11.1,18.3,18.3,25.9
					c7.2,7.6,15.4,14.1,23.9,19c8.5,4.9,17.3,8.4,25.9,10.1c8.5,1.7,16.8,1.6,24.4-0.5c7.5-2.1,13.5-5.9,18.1-11
					c4.5-5.1,7.6-11.4,9.1-18.5c1.5-7.1,1.6-15,0-23.2C400,243.9,397,235.3,392.4,226.6z M366.2,254.1c-0.7,3-2.1,5.7-4.2,7.8
					c-2,2.1-4.7,3.6-7.9,4.4c-3.2,0.8-6.8,0.7-10.4,0c-3.6-0.8-7.3-2.3-10.8-4.4c-3.5-2.1-6.9-4.8-9.9-8c-3-3.2-5.6-6.8-7.6-10.7
					c-2-3.9-3.3-7.8-3.8-11.5c-0.5-3.7-0.3-7.1,0.6-10.1c0.9-3,2.4-5.5,4.6-7.5c2.1-2,4.9-3.3,8.1-4c3.3-0.6,6.7-0.4,10.3,0.4
					c3.5,0.9,7.1,2.4,10.4,4.4c3.4,2.1,6.6,4.7,9.5,7.7c2.9,3,5.4,6.5,7.4,10.3c2,3.8,3.3,7.6,3.9,11.1
					C367.1,247.7,367,251.1,366.2,254.1z"/>
				
					<linearGradient id="SVGID_6_" gradientUnits="userSpaceOnUse" x1="258.079" y1="335.2726" x2="433.731" y2="219.1156" gradientTransform="matrix(0.9932 -0.1163 0.1163 0.9932 -39.2005 16.0512)">
					<stop  offset="0" style="stop-color:#FFFFFF"/>
					<stop  offset="1" style="stop-color:#FFFFFF"/>
				</linearGradient>
				<path class="st8" d="M312.3,221.6c-0.9,3-1.1,6.4-0.6,10.1c0.5,3.7,1.8,7.6,3.8,11.5c2,4,4.6,7.6,7.6,10.7c3,3.2,6.4,5.9,9.9,8
					c3.5,2.1,7.2,3.6,10.8,4.4c2.6,0.6,5.1,0.7,7.5,0.5c-2.7,0.4-5.6,0.2-8.5-0.4c-3.6-0.8-7.3-2.3-10.8-4.4c-3.5-2.1-6.9-4.8-9.9-8
					c-3-3.2-5.6-6.8-7.6-10.7c-2-3.9-3.3-7.8-3.8-11.5c-0.5-3.7-0.3-7.1,0.6-10.1c0.9-3,2.4-5.5,4.6-7.5c2.1-2,4.9-3.3,8.1-4
					c0.6-0.1,1.3-0.2,1.9-0.3c-0.3,0-0.6,0.1-0.9,0.1c-3.3,0.6-6,2-8.1,4C314.7,216.1,313.2,218.6,312.3,221.6z M374.3,305
					c7.5-2.1,13.5-5.9,18.1-11c4.5-5.1,7.6-11.4,9.1-18.5c1.5-7.1,1.6-15,0-23.2c-1.5-8.2-4.5-16.9-9.2-25.6
					c-4.6-8.6-10.4-16.6-17-23.5c-6.6-6.9-13.9-13-21.6-17.7c-7.7-4.8-15.9-8.4-23.9-10.5c-7.4-1.9-14.8-2.6-21.8-1.8
					c6.7-0.6,13.7,0.1,20.8,1.9c8.1,2.1,16.2,5.7,23.9,10.5c7.7,4.8,15.1,10.8,21.6,17.7c6.6,6.9,12.4,14.9,17,23.5
					c4.6,8.7,7.7,17.3,9.2,25.6c1.5,8.3,1.5,16.2,0,23.2c-1.5,7.1-4.6,13.5-9.1,18.5c-4.6,5.1-10.6,8.9-18.1,11
					c-1.8,0.5-3.7,0.9-5.7,1.2C369.9,306,372.1,305.5,374.3,305z M255.1,149.9c-8.5,6.7-14.9,15.7-18.9,26.5
					c-4,10.9-5.5,23.6-4.1,37.4c1.4,14,5.8,29,13.3,44.4c7.6,15.5,17.7,29.6,29.4,42c11.7,12.3,24.9,22.7,38.7,30.6
					c13.7,7.8,27.9,13.2,41.7,15.6c8.8,1.5,17.4,1.9,25.6,0.9c-7.9,0.8-16.2,0.4-24.6-1c-13.8-2.4-28-7.8-41.7-15.6
					c-13.8-7.9-27-18.3-38.7-30.6c-11.7-12.3-21.8-26.5-29.4-42c-7.6-15.3-11.9-30.4-13.3-44.4c-1.4-13.8,0.1-26.5,4.1-37.4
					c3.9-10.8,10.3-19.8,18.9-26.5c8.4-6.6,18.8-11,31-12.6c-0.3,0-0.6,0.1-1,0.1C273.9,138.9,263.4,143.3,255.1,149.9z
					 M467.9,267.3c-3.7-17.1-10.3-34.9-20.1-52.7c-9.7-17.6-21.7-33.8-35.1-48c-13.4-14.2-28.4-26.6-44.1-36.6
					c-15.8-10.1-32.6-18-49.3-22.9c-17-5-34.2-7-50.6-5.3c-0.3,0-0.6,0.1-1,0.1c16.4-1.7,33.6,0.3,50.6,5.3
					c16.7,4.9,33.5,12.8,49.3,22.9c15.7,10,30.7,22.4,44.1,36.6c13.4,14.2,25.4,30.3,35.1,48c9.8,17.8,16.5,35.6,20.1,52.7
					c3.7,17.4,4.3,34.1,1.9,49.3c-2.5,15.6-8.1,29.7-17,41.3c-9.1,11.9-21.5,21.2-37.2,26.7c-6.8,2.4-13.9,4-21.3,4.8
					c7.7-0.8,15.2-2.4,22.3-4.9c15.7-5.5,28.1-14.8,37.2-26.7c8.8-11.6,14.5-25.7,17-41.3C472.3,301.4,471.7,284.7,467.9,267.3z"/>
				
					<linearGradient id="SVGID_7_" gradientUnits="userSpaceOnUse" x1="147.7617" y1="177.0883" x2="377.0779" y2="459.6959" gradientTransform="matrix(0.9932 -0.1163 0.1163 0.9932 -39.2005 16.0512)">
					<stop  offset="0" style="stop-color:#71B8F5"/>
					<stop  offset="6.089762e-02" style="stop-color:#509EE7"/>
					<stop  offset="0.2079" style="stop-color:#0361C8"/>
					<stop  offset="0.3258" style="stop-color:#1973D1"/>
					<stop  offset="0.5702" style="stop-color:#51A0E8"/>
					<stop  offset="0.6774" style="stop-color:#6CB5F3"/>
					<stop  offset="0.7657" style="stop-color:#4E99E0"/>
					<stop  offset="1" style="stop-color:#0150B1"/>
				</linearGradient>
				<path class="st9" d="M447.5,409.5c-1.5,0.9-3.1,1.8-4.7,2.6c-1.6,0.8-3.3,1.6-5,2.4c-1.7,0.8-3.4,1.5-5.2,2.2
					c-1.2,0.5-2.4,0.9-3.6,1.3c-0.1,0-0.1,0-0.2,0.1c-0.5,0.2-1,0.3-1.5,0.5c-0.9,0.3-1.8,0.6-2.7,0.8c-0.5,0.1-1,0.3-1.5,0.4
					c-0.9,0.2-1.7,0.5-2.6,0.7c-0.5,0.1-1,0.3-1.6,0.4c-0.9,0.2-1.7,0.4-2.6,0.6c-0.5,0.1-1,0.2-1.6,0.3c-0.9,0.2-1.8,0.4-2.7,0.5
					c-0.5,0.1-1,0.2-1.5,0.3c-0.6,0.1-1.2,0.2-1.9,0.3c-0.6,0.1-1.3,0.2-1.9,0.3c-0.6,0.1-1.3,0.2-1.9,0.2c-0.6,0.1-1.3,0.1-1.9,0.2
					c-0.6,0.1-1.3,0.1-1.9,0.2c-0.6,0.1-1.3,0.1-1.9,0.2c-0.7,0-1.3,0.1-2,0.1c-0.7,0-1.5,0.1-2.2,0.1c-0.5,0-0.9,0-1.4,0.1
					c-1.2,0-2.4,0.1-3.6,0.1c-0.3,0-0.7,0-1,0c-0.9,0-1.9,0-2.8,0c-0.5,0-1,0-1.5,0c-0.8,0-1.7-0.1-2.5-0.1c-0.4,0-0.9,0-1.3-0.1
					c-1-0.1-1.9-0.1-2.9-0.2c-0.3,0-0.6,0-0.9-0.1c-1.3-0.1-2.5-0.2-3.8-0.4c-0.3,0-0.6-0.1-1-0.1c-1-0.1-2-0.2-3-0.4
					c-0.4,0-0.7-0.1-1.1-0.2c-1.1-0.2-2.3-0.3-3.4-0.5c-0.2,0-0.3-0.1-0.5-0.1c-1.3-0.2-2.6-0.4-3.9-0.7c-0.4-0.1-0.8-0.1-1.1-0.2
					c-1-0.2-2-0.4-3-0.6c-0.4-0.1-0.7-0.2-1.1-0.2c-1.3-0.3-2.5-0.6-3.8-0.9c-0.3-0.1-0.7-0.2-1-0.3c-1-0.2-1.9-0.5-2.9-0.7
					c-0.5-0.1-0.9-0.2-1.4-0.4c-1.1-0.3-2.1-0.6-3.2-0.9c-0.2-0.1-0.5-0.1-0.7-0.2c-0.1,0-0.3-0.1-0.4-0.1c-1.1-0.3-2.3-0.7-3.4-1
					c-0.5-0.2-1-0.3-1.5-0.5c-0.9-0.3-1.8-0.6-2.6-0.9c-0.4-0.2-0.9-0.3-1.3-0.5c-1.2-0.4-2.5-0.9-3.7-1.3c-0.5-0.2-0.9-0.3-1.4-0.5
					c-0.9-0.3-1.8-0.7-2.6-1c-0.5-0.2-1-0.4-1.5-0.6c-1-0.4-2-0.8-3-1.2c-0.3-0.1-0.6-0.3-1-0.4c-1.3-0.5-2.6-1.1-3.8-1.7
					c-0.5-0.2-0.9-0.4-1.4-0.6c-0.9-0.4-1.8-0.8-2.7-1.3c-0.5-0.2-0.9-0.4-1.4-0.7c-1.1-0.5-2.2-1-3.2-1.6c-0.3-0.1-0.5-0.2-0.8-0.4
					c-1.3-0.7-2.7-1.4-4-2.1c-0.4-0.2-0.8-0.4-1.1-0.6c-1-0.5-2-1-2.9-1.6c-0.5-0.3-0.9-0.5-1.4-0.8c-0.9-0.5-1.9-1.1-2.8-1.6
					c-0.4-0.3-0.9-0.5-1.3-0.8c-0.9-0.5-1.9-1.1-2.8-1.7c-0.5-0.3-0.9-0.6-1.4-0.8c-1.3-0.8-2.6-1.6-3.9-2.4c0,0-0.1-0.1-0.1-0.1
					c-0.3-0.2-0.7-0.4-1-0.6c-1-0.7-2.1-1.3-3.1-2c-0.6-0.4-1.2-0.8-1.8-1.2c-0.7-0.5-1.5-1-2.2-1.5c-0.9-0.6-1.7-1.2-2.6-1.8
					c-0.6-0.4-1.1-0.8-1.7-1.2c-0.9-0.6-1.8-1.3-2.7-1.9c-0.5-0.4-1.1-0.8-1.6-1.2c-0.9-0.7-1.8-1.4-2.7-2.1c-0.5-0.4-1-0.8-1.5-1.2
					c-0.9-0.7-1.8-1.4-2.7-2.1c-0.5-0.4-0.9-0.7-1.4-1.1c-1.7-1.4-3.5-2.8-5.2-4.3c-0.2-0.1-0.3-0.3-0.5-0.4c-1.5-1.3-3-2.6-4.5-3.9
					c-0.4-0.4-0.9-0.8-1.3-1.1c-1.3-1.2-2.7-2.4-4-3.6c-0.3-0.3-0.7-0.6-1-0.9c-1.6-1.5-3.2-3-4.8-4.6c-0.5-0.5-1-1-1.5-1.5
					c-0.8-0.8-1.7-1.6-2.5-2.5c-0.6-0.6-1.1-1.1-1.7-1.7c-0.8-0.8-1.5-1.6-2.3-2.4c-0.6-0.6-1.1-1.2-1.7-1.8
					c-0.7-0.8-1.5-1.6-2.2-2.4c-0.6-0.6-1.1-1.2-1.7-1.8c-0.7-0.8-1.5-1.6-2.2-2.5c-0.5-0.6-1.1-1.2-1.6-1.8
					c-0.7-0.9-1.5-1.7-2.2-2.6c-0.5-0.6-1-1.2-1.5-1.8c-0.7-0.9-1.5-1.8-2.2-2.7c-0.5-0.6-0.9-1.1-1.4-1.7c-0.8-1-1.5-1.9-2.3-2.9
					c-0.4-0.5-0.8-1.1-1.2-1.6c-0.8-1-1.6-2.1-2.3-3.1c-0.4-0.5-0.7-1-1.1-1.5c-0.8-1.1-1.6-2.3-2.4-3.4c-0.3-0.4-0.6-0.9-0.9-1.3
					c-0.9-1.3-1.7-2.5-2.6-3.8c-0.2-0.3-0.4-0.6-0.7-1c-1-1.5-2-3.1-3-4.7c0-0.1-0.1-0.1-0.1-0.2c-1.1-1.7-2.1-3.3-3.1-5
					c-1-1.7-2-3.3-3-5c-0.2-0.3-0.4-0.6-0.5-1c-0.8-1.3-1.5-2.7-2.3-4c-0.3-0.6-0.6-1.1-0.9-1.7c-0.6-1.1-1.2-2.2-1.8-3.3
					c-0.4-0.7-0.7-1.4-1.1-2.1c-0.5-1-1-2-1.5-3c-0.7-1.4-1.4-2.8-2.1-4.3c-0.9-1.9-1.8-3.9-2.7-5.8c-0.3-0.6-0.6-1.3-0.8-1.9
					c-0.6-1.3-1.1-2.6-1.6-3.9c-0.3-0.8-0.6-1.5-0.9-2.3c-0.5-1.2-0.9-2.3-1.4-3.5c-0.3-0.8-0.6-1.6-0.9-2.4
					c-0.4-1.2-0.9-2.4-1.3-3.5c-0.2-0.6-0.4-1.2-0.7-1.9c-0.5-1.4-0.9-2.8-1.4-4.1c-0.1-0.4-0.3-0.9-0.4-1.3
					c-0.6-1.8-1.1-3.6-1.6-5.4c-0.1-0.4-0.2-0.9-0.4-1.3c-0.4-1.4-0.8-2.8-1.1-4.2c-0.1-0.4-0.2-0.9-0.3-1.3
					c-0.4-1.7-0.8-3.4-1.2-5.1c0,0,0-0.1,0-0.1c-0.4-1.7-0.7-3.4-1.1-5.1c-0.1-0.4-0.2-0.9-0.3-1.3c-0.3-1.7-0.6-3.3-0.9-4.9
					c0,0,0-0.1,0-0.1c-0.3-1.6-0.5-3.3-0.7-4.9c0-0.4-0.1-0.7-0.1-1.1c-0.2-1.6-0.4-3.2-0.5-4.8c0-0.3,0-0.5-0.1-0.8
					c-0.1-1.6-0.3-3.1-0.4-4.6c0-0.1,0-0.3,0-0.4c-0.1-1.6-0.2-3.2-0.2-4.8c0-0.3,0-0.6,0-0.9c0-1.5-0.1-3.1-0.1-4.6
					c0-0.3,0-0.5,0-0.8c0-1.6,0-3.1,0.1-4.6c0-0.1,0-0.3,0-0.4c0.1-1.5,0.1-2.9,0.2-4.4c0-0.2,0-0.4,0-0.6c0.1-1.5,0.2-2.9,0.4-4.4
					c0-0.3,0.1-0.5,0.1-0.8c0.2-1.4,0.3-2.8,0.5-4.2c0-0.3,0.1-0.5,0.1-0.7c0.2-1.4,0.4-2.9,0.7-4.3c0-0.1,0-0.1,0-0.2
					c0.3-1.4,0.5-2.8,0.8-4.1c0-0.2,0.1-0.4,0.1-0.6c0.3-1.3,0.6-2.7,1-4c0.1-0.3,0.1-0.5,0.2-0.8c0.4-1.3,0.7-2.6,1.1-3.9
					c0-0.2,0.1-0.3,0.1-0.5c0.4-1.2,0.8-2.4,1.2-3.6c0.1-0.2,0.1-0.4,0.2-0.6c0.4-1.2,0.9-2.4,1.4-3.6c0.1-0.3,0.2-0.5,0.3-0.8
					c0.5-1.2,0.9-2.3,1.4-3.5c0-0.1,0.1-0.1,0.1-0.2c0.5-1.2,1.1-2.4,1.6-3.5c0.1-0.3,0.3-0.6,0.4-0.9c0.5-1,1-2,1.5-3
					c0.1-0.2,0.2-0.3,0.3-0.5c0.6-1.1,1.2-2.2,1.9-3.2c0.2-0.3,0.4-0.7,0.6-1c0.5-0.8,1-1.6,1.5-2.3c0.2-0.3,0.5-0.7,0.7-1
					c0.6-0.9,1.2-1.7,1.8-2.6c0.1-0.2,0.3-0.4,0.4-0.6c0.8-1.1,1.6-2.2,2.5-3.3l-2.9,3.6c0,0-0.1,0.1-0.1,0.1
					c-0.1,0.1-0.2,0.2-0.3,0.4l-0.3,0.4c-0.2,0.2-0.4,0.5-0.6,0.7l-1.1,1.4c-0.2,0.2-0.3,0.4-0.5,0.7l-1.5,1.9
					c-0.2,0.3-0.4,0.5-0.6,0.7c-0.3,0.4-0.7,0.8-1,1.3l-0.9,1.1c0,0,0,0,0,0c-0.5,0.6-1.1,1.4-1.7,2.1l-0.8,1
					c-0.2,0.2-0.3,0.4-0.4,0.6c-0.1,0.1-0.2,0.3-0.4,0.5l-0.3,0.4c-0.4,0.5-0.9,1.1-1.3,1.6c-0.3,0.4-0.7,0.8-1,1.3l-0.7,0.9
					c0,0.1-0.1,0.1-0.1,0.2c-0.3,0.3-0.6,0.7-0.8,1.1l-0.8,1c-0.2,0.3-0.5,0.6-0.7,0.9l-0.5,0.7c0,0-0.1,0.1-0.1,0.1
					c0,0-0.1,0.1-0.1,0.1c0,0-0.1,0.1-0.1,0.1c0,0-0.1,0.1-0.1,0.1c-0.7,0.9-1.3,1.7-2,2.6c0,0-0.1,0.1-0.1,0.1
					c-0.1,0.2-0.3,0.4-0.4,0.6c-0.5,0.6-0.9,1.3-1.4,1.9c-0.1,0.2-0.3,0.4-0.4,0.6c-0.2,0.3-0.5,0.7-0.7,1c-0.2,0.4-0.5,0.7-0.7,1.1
					c-0.3,0.4-0.5,0.8-0.8,1.3c-0.2,0.3-0.4,0.7-0.6,1c-0.1,0.2-0.2,0.3-0.3,0.5c-0.5,0.8-1,1.7-1.5,2.5c0,0.1-0.1,0.1-0.1,0.2
					c-0.1,0.2-0.2,0.3-0.3,0.5c-0.4,0.6-0.7,1.3-1,1.9c-0.2,0.3-0.3,0.7-0.5,1c-0.2,0.3-0.3,0.6-0.5,0.9c-0.1,0.2-0.2,0.5-0.4,0.7
					c-0.4,0.9-0.9,1.8-1.3,2.7c0,0,0,0,0,0.1c0,0.1-0.1,0.1-0.1,0.2c-0.3,0.8-0.7,1.5-1,2.3c-0.2,0.4-0.3,0.8-0.5,1.2
					c-0.1,0.3-0.2,0.5-0.3,0.8c-0.1,0.2-0.2,0.4-0.3,0.6c-0.3,0.9-0.7,1.7-1,2.6c0,0.1-0.1,0.2-0.1,0.4c0,0.1-0.1,0.1-0.1,0.2
					c-0.1,0.1-0.1,0.3-0.1,0.4c-0.2,0.6-0.4,1.1-0.6,1.7c-0.2,0.6-0.4,1.3-0.6,1.9c0,0.2-0.1,0.3-0.1,0.5c0,0.1-0.1,0.2-0.1,0.2
					c-0.3,0.9-0.5,1.7-0.8,2.6c-0.1,0.3-0.2,0.7-0.3,1c-0.1,0.3-0.1,0.5-0.2,0.8c-0.1,0.3-0.2,0.6-0.2,0.8c-0.2,0.9-0.5,1.8-0.7,2.7
					c0,0.1-0.1,0.3-0.1,0.4c0,0.2-0.1,0.4-0.1,0.6c-0.1,0.5-0.2,1.1-0.4,1.6c-0.2,0.8-0.3,1.6-0.5,2.5c0,0.1,0,0.1,0,0.2
					c0,0,0,0,0,0.1c-0.2,0.9-0.3,1.8-0.5,2.7c-0.1,0.5-0.2,1-0.2,1.5c0,0.2-0.1,0.5-0.1,0.7c0,0.2-0.1,0.4-0.1,0.6
					c-0.1,0.9-0.3,1.8-0.4,2.8c0,0.3-0.1,0.6-0.1,0.8c0,0.3-0.1,0.5-0.1,0.8c0,0.4-0.1,0.8-0.1,1.2c-0.1,0.9-0.2,1.9-0.3,2.8
					c0,0.1,0,0.2,0,0.3c0,0.2,0,0.4,0,0.5c-0.1,0.7-0.1,1.3-0.2,2c-0.1,0.8-0.1,1.5-0.1,2.3c0,0.1,0,0.2,0,0.3c0,0,0,0.1,0,0.1
					c0,0.1,0,0.1,0,0.2c0,1-0.1,2-0.1,2.9c0,0.5,0,1,0,1.4c0,0.3,0,0.5,0,0.8c0,0.2,0,0.5,0,0.7c0,1,0,2,0,3c0,0.3,0,0.5,0,0.8
					c0,0.3,0,0.6,0,0.9c0,0.5,0,0.9,0,1.4c0,1,0.1,2.1,0.1,3.1c0,0,0,0.1,0,0.1c0,0.1,0,0.3,0,0.4c0,0.9,0.1,1.8,0.2,2.6
					c0,0.6,0.1,1.3,0.2,1.9c0,0.3,0,0.5,0.1,0.8c0,0.2,0,0.3,0,0.5c0.1,1.1,0.2,2.3,0.3,3.4c0,0.3,0.1,0.6,0.1,0.9
					c0,0.4,0.1,0.7,0.1,1.1c0.1,0.5,0.1,1,0.2,1.5c0.1,1.1,0.3,2.2,0.5,3.3c0,0,0,0.1,0,0.1c0,0,0,0,0,0c0.2,1.2,0.4,2.3,0.6,3.5
					c0.1,0.5,0.2,0.9,0.2,1.4c0.1,0.4,0.2,0.9,0.2,1.3c0.1,0.4,0.1,0.7,0.2,1.1c0.2,1.3,0.5,2.6,0.8,3.8c0,0,0,0,0,0c0,0,0,0,0,0
					c0,0,0,0.1,0,0.1c0.3,1.2,0.5,2.4,0.8,3.7c0.1,0.4,0.2,0.9,0.3,1.3c0.1,0.4,0.2,0.9,0.3,1.3c0.1,0.4,0.2,0.8,0.3,1.3
					c0.2,1,0.5,1.9,0.8,2.9c0.1,0.4,0.2,0.9,0.3,1.3c0,0.1,0.1,0.2,0.1,0.4c0.4,1.5,0.9,3,1.3,4.5c0,0.1,0.1,0.2,0.1,0.4
					c0.1,0.4,0.3,0.9,0.4,1.3c0.3,1,0.6,1.9,0.9,2.9c0.1,0.4,0.3,0.8,0.4,1.1c0.2,0.6,0.4,1.2,0.6,1.8c0.2,0.5,0.4,1.1,0.6,1.6
					c0.2,0.6,0.4,1.2,0.7,1.8c0.3,0.8,0.6,1.6,0.9,2.3c0.1,0.4,0.3,0.7,0.4,1.1c0.3,0.8,0.6,1.6,0.9,2.3c0.3,0.7,0.6,1.5,0.9,2.2
					c0.1,0.2,0.2,0.5,0.3,0.7c0.4,1,0.9,2,1.3,3.1c0.3,0.6,0.5,1.3,0.8,1.9c0.1,0.1,0.1,0.2,0.2,0.4c0.8,1.8,1.6,3.5,2.4,5.3
					c0.1,0.3,0.3,0.6,0.4,0.9c0.1,0.3,0.3,0.6,0.4,0.9c0.1,0.3,0.3,0.6,0.4,0.9s0.3,0.6,0.4,0.9c0.1,0.2,0.2,0.4,0.3,0.6
					c0.5,1,1,2,1.5,3c0.3,0.7,0.7,1.4,1,2c0.6,1.1,1.1,2.1,1.7,3.2c0.3,0.6,0.6,1.1,0.9,1.7c0.7,1.3,1.4,2.6,2.2,3.9
					c0.2,0.3,0.3,0.6,0.5,0.9c1.9,3.3,3.9,6.6,5.9,9.8c0,0.1,0.1,0.1,0.1,0.2c1,1.5,1.9,3,2.9,4.5c0.2,0.3,0.4,0.6,0.6,0.9
					c0.8,1.2,1.7,2.5,2.5,3.7c0.3,0.4,0.6,0.8,0.9,1.3c0.8,1.1,1.6,2.2,2.3,3.3c0.1,0.1,0.2,0.3,0.3,0.4c0.2,0.3,0.5,0.7,0.8,1
					c0.7,1,1.5,2,2.3,3c0.4,0.5,0.8,1,1.2,1.6c0.7,0.9,1.5,1.9,2.2,2.8c0.4,0.6,0.9,1.1,1.3,1.7c0.7,0.9,1.4,1.8,2.2,2.7
					c0.5,0.6,1,1.2,1.4,1.7c0.7,0.8,1.4,1.7,2.1,2.5c0.3,0.3,0.6,0.7,0.8,1c0.2,0.3,0.5,0.5,0.7,0.8c0.7,0.8,1.4,1.6,2.1,2.4
					c0.5,0.6,1.1,1.2,1.6,1.8c0.7,0.8,1.4,1.5,2.1,2.3c0.5,0.6,1.1,1.2,1.7,1.8c0.2,0.2,0.4,0.4,0.6,0.6c0.5,0.6,1.1,1.1,1.6,1.7
					c0.5,0.6,1.1,1.1,1.6,1.7c0.8,0.8,1.6,1.6,2.4,2.4c0.4,0.4,0.8,0.8,1.2,1.2c0.1,0.1,0.1,0.1,0.2,0.2c1.5,1.5,3.1,3,4.7,4.5
					c0.1,0.1,0.2,0.2,0.3,0.3c0.2,0.2,0.5,0.4,0.7,0.6c1.3,1.2,2.6,2.4,3.9,3.5c0.2,0.2,0.4,0.4,0.7,0.6c0.2,0.2,0.4,0.3,0.6,0.5
					c1.5,1.3,2.9,2.5,4.4,3.8c0.1,0.1,0.2,0.2,0.4,0.3c0,0,0.1,0.1,0.1,0.1c1.7,1.4,3.4,2.8,5.1,4.1c0.1,0.1,0.2,0.2,0.3,0.2
					c0.4,0.3,0.7,0.6,1.1,0.9c0.9,0.7,1.8,1.4,2.6,2.1c0.1,0.1,0.2,0.2,0.4,0.3c0.4,0.3,0.8,0.6,1.1,0.8c0.9,0.7,1.8,1.3,2.6,2
					c0.1,0.1,0.3,0.2,0.4,0.3c0.4,0.3,0.8,0.6,1.2,0.8c0.9,0.6,1.7,1.3,2.6,1.9c0.1,0.1,0.3,0.2,0.4,0.3c0.4,0.3,0.8,0.6,1.2,0.8
					c0.8,0.6,1.7,1.2,2.5,1.7c0.2,0.1,0.3,0.2,0.5,0.3c0.6,0.4,1.1,0.8,1.7,1.1c0.6,0.4,1.1,0.8,1.7,1.1c0.1,0.1,0.2,0.1,0.3,0.2
					c0.9,0.6,1.8,1.2,2.8,1.8c0.4,0.2,0.8,0.5,1.1,0.7c1.2,0.7,2.4,1.5,3.6,2.2c0.1,0,0.2,0.1,0.2,0.1c0.5,0.3,0.9,0.5,1.4,0.8
					c0.7,0.4,1.4,0.8,2.1,1.3c0.2,0.1,0.4,0.2,0.6,0.3c0.4,0.2,0.9,0.5,1.3,0.7c0.5,0.3,1,0.6,1.5,0.9c0.4,0.2,0.8,0.4,1.2,0.7
					c0.3,0.1,0.5,0.3,0.8,0.4c0.2,0.1,0.4,0.2,0.6,0.3c0.3,0.2,0.6,0.3,0.9,0.5c0.7,0.4,1.3,0.7,2,1c0.4,0.2,0.7,0.4,1.1,0.6
					c0.1,0.1,0.2,0.1,0.3,0.2c1.2,0.6,2.3,1.2,3.5,1.7c0,0,0.1,0,0.1,0.1c0.2,0.1,0.5,0.2,0.7,0.4c0.8,0.4,1.6,0.8,2.4,1.2
					c0.3,0.1,0.5,0.2,0.8,0.3c0.5,0.2,0.9,0.4,1.4,0.6c0.4,0.2,0.8,0.4,1.2,0.5c0.5,0.2,1,0.4,1.5,0.7c0.4,0.2,0.9,0.4,1.3,0.6
					c0.1,0.1,0.3,0.1,0.4,0.2c1.1,0.5,2.2,0.9,3.3,1.4c0,0,0,0,0,0c0.3,0.1,0.6,0.3,0.9,0.4c0.7,0.3,1.5,0.6,2.2,0.9
					c0.2,0.1,0.5,0.2,0.7,0.3c0.5,0.2,1,0.4,1.5,0.6c0.3,0.1,0.6,0.3,1,0.4c0.5,0.2,1.1,0.4,1.6,0.6c0.4,0.2,0.9,0.3,1.3,0.5
					c0.1,0,0.1,0.1,0.2,0.1c1.1,0.4,2.1,0.7,3.2,1.1c0.1,0,0.2,0.1,0.3,0.1c0.4,0.1,0.9,0.3,1.3,0.4c0.5,0.2,1,0.3,1.5,0.5
					c0.4,0.1,0.7,0.2,1.1,0.3c0.5,0.2,1,0.3,1.4,0.4c0.2,0.1,0.4,0.1,0.6,0.2c0.9,0.3,1.8,0.5,2.8,0.8c0.3,0.1,0.7,0.2,1,0.3
					c0.8,0.2,1.6,0.4,2.4,0.7c0.2,0.1,0.5,0.1,0.7,0.2c0.4,0.1,0.9,0.2,1.3,0.3c0.3,0.1,0.7,0.2,1,0.3c0.6,0.2,1.2,0.3,1.9,0.4
					c0.3,0.1,0.7,0.2,1,0.2c0.1,0,0.1,0,0.2,0.1c1,0.2,2.1,0.5,3.1,0.7c0.2,0,0.3,0.1,0.5,0.1c0.4,0.1,0.7,0.1,1.1,0.2
					c0.5,0.1,1,0.2,1.5,0.3c0.5,0.1,0.9,0.2,1.4,0.3c0.4,0.1,0.7,0.1,1.1,0.2c0.2,0,0.4,0.1,0.6,0.1c1,0.2,2.1,0.3,3.1,0.5
					c0,0,0.1,0,0.1,0c0.2,0,0.3,0,0.5,0.1c0.8,0.1,1.6,0.2,2.5,0.4c0.3,0,0.6,0.1,0.9,0.1c0.2,0,0.4,0.1,0.5,0.1
					c0.2,0,0.4,0,0.6,0.1c0.3,0,0.7,0.1,1,0.1c0.6,0.1,1.3,0.1,1.9,0.2c0.3,0,0.6,0.1,1,0.1c0.1,0,0.2,0,0.3,0
					c1.1,0.1,2.1,0.2,3.2,0.3c0.1,0,0.1,0,0.2,0c0.3,0,0.6,0,0.9,0.1c0.7,0,1.4,0.1,2,0.1c0.3,0,0.5,0,0.8,0c0.4,0,0.9,0,1.3,0.1
					c0.3,0,0.7,0,1,0c0.5,0,1,0,1.4,0c0.5,0,1,0,1.4,0c0.2,0,0.3,0,0.5,0c0.8,0,1.6,0,2.3,0c0.3,0,0.6,0,1,0c0,0,0,0,0,0
					c1.1,0,2.2,0,3.3-0.1c0.1,0,0.2,0,0.3,0c0.5,0,0.9,0,1.4-0.1c0.5,0,1.1,0,1.6-0.1c0.2,0,0.4,0,0.6,0c0.6,0,1.3-0.1,1.9-0.2
					c0.4,0,0.7-0.1,1.1-0.1c0.3,0,0.5-0.1,0.8-0.1c0.6-0.1,1.3-0.1,1.9-0.2c0.3,0,0.6-0.1,0.9-0.1c0.3,0,0.6-0.1,0.9-0.1
					c0.6-0.1,1.3-0.2,1.9-0.3c0.3,0,0.5-0.1,0.8-0.1c0.4-0.1,0.7-0.1,1.1-0.2c0.6-0.1,1.2-0.2,1.8-0.3c0.2,0,0.4-0.1,0.6-0.1
					c0.3-0.1,0.6-0.1,0.9-0.2c0.9-0.2,1.8-0.3,2.7-0.5c0.2-0.1,0.5-0.1,0.7-0.1c0.3-0.1,0.5-0.1,0.8-0.2c0.9-0.2,1.7-0.4,2.6-0.6
					c0.3-0.1,0.6-0.1,0.9-0.2c0.2-0.1,0.4-0.1,0.6-0.2c0.9-0.2,1.7-0.5,2.5-0.7c0.4-0.1,0.7-0.2,1.1-0.3c0.1,0,0.3-0.1,0.4-0.1
					c0.9-0.3,1.8-0.6,2.7-0.9c0.4-0.1,0.7-0.2,1.1-0.3c0.1-0.1,0.3-0.1,0.4-0.2c0.1,0,0.1,0,0.2-0.1c0.1-0.1,0.3-0.1,0.4-0.2
					c0.3-0.1,0.7-0.2,1-0.4c0.3-0.1,0.7-0.3,1-0.4c0.3-0.1,0.7-0.3,1-0.4c1.8-0.7,3.5-1.4,5.2-2.2c1.7-0.8,3.3-1.6,5-2.4
					c1.6-0.8,3.2-1.7,4.7-2.6c1.5-0.9,3-1.8,4.5-2.8l26.1-17.3C450.5,407.7,449,408.6,447.5,409.5z"/>
				
					<linearGradient id="SVGID_8_" gradientUnits="userSpaceOnUse" x1="151.1351" y1="149.119" x2="403.2675" y2="494.0497" gradientTransform="matrix(0.9932 -0.1163 0.1163 0.9932 -39.2005 16.0512)">
					<stop  offset="0" style="stop-color:#FFFFFF;stop-opacity:0.8"/>
					<stop  offset="3.686107e-02" style="stop-color:#FFFFFF;stop-opacity:0.6832"/>
					<stop  offset="0.2525" style="stop-color:#FFFFFF;stop-opacity:0"/>
					<stop  offset="0.5171" style="stop-color:#FFFFFF;stop-opacity:0.8"/>
					<stop  offset="0.9102" style="stop-color:#FFFFFF;stop-opacity:0"/>
				</linearGradient>
				<path class="st10" d="M229.3,347.5c20.1,21.2,42.9,38.8,66.8,51.9c23.5,12.9,47.7,21.3,71,24.5c22.7,3.1,44.5,1.2,63.8-6.2
					c5.3-2,10.3-4.4,14.9-7.2c-1,0.5-1.9,1.1-2.9,1.6c-1.6,0.8-3.3,1.6-5,2.4c-1.7,0.8-3.4,1.5-5.2,2.2c-1.2,0.5-2.4,0.9-3.6,1.3
					c-0.1,0-0.1,0-0.2,0.1c-0.5,0.2-1,0.3-1.5,0.5c-0.9,0.3-1.8,0.6-2.7,0.8c-0.5,0.1-1,0.3-1.5,0.4c-0.9,0.2-1.7,0.5-2.6,0.7
					c-0.5,0.1-1,0.3-1.6,0.4c-0.9,0.2-1.7,0.4-2.6,0.6c-0.5,0.1-1,0.2-1.6,0.3c-0.9,0.2-1.8,0.4-2.7,0.5c-0.5,0.1-1,0.2-1.5,0.3
					c-0.6,0.1-1.2,0.2-1.9,0.3c-0.6,0.1-1.3,0.2-1.9,0.3c-0.6,0.1-1.3,0.2-1.9,0.2c-0.6,0.1-1.3,0.1-1.9,0.2
					c-0.6,0.1-1.3,0.1-1.9,0.2c-0.6,0.1-1.3,0.1-1.9,0.2c-0.7,0-1.3,0.1-2,0.1c-0.7,0-1.5,0.1-2.2,0.1c-0.5,0-0.9,0-1.4,0.1
					c-1.2,0-2.4,0.1-3.6,0.1c-0.3,0-0.7,0-1,0c-0.9,0-1.9,0-2.8,0c-0.5,0-1,0-1.5,0c-0.8,0-1.7-0.1-2.5-0.1c-0.4,0-0.9,0-1.3-0.1
					c-1-0.1-1.9-0.1-2.9-0.2c-0.3,0-0.6,0-0.9-0.1c-1.3-0.1-2.5-0.2-3.8-0.4c-0.3,0-0.6-0.1-1-0.1c-1-0.1-2-0.2-3-0.4
					c-0.4,0-0.7-0.1-1.1-0.2c-1.1-0.2-2.3-0.3-3.4-0.5c-0.2,0-0.3-0.1-0.5-0.1c-1.3-0.2-2.6-0.4-3.9-0.7c-0.4-0.1-0.8-0.1-1.1-0.2
					c-1-0.2-2-0.4-3-0.6c-0.4-0.1-0.7-0.2-1.1-0.2c-1.3-0.3-2.5-0.6-3.8-0.9c-0.3-0.1-0.7-0.2-1-0.3c-1-0.2-1.9-0.5-2.9-0.7
					c-0.5-0.1-0.9-0.2-1.4-0.4c-1.1-0.3-2.1-0.6-3.2-0.9c-0.2-0.1-0.5-0.1-0.7-0.2c-0.1,0-0.3-0.1-0.4-0.1c-1.1-0.3-2.3-0.7-3.4-1
					c-0.5-0.2-1-0.3-1.5-0.5c-0.9-0.3-1.8-0.6-2.6-0.9c-0.4-0.2-0.9-0.3-1.3-0.5c-1.2-0.4-2.5-0.9-3.7-1.3c-0.5-0.2-0.9-0.3-1.4-0.5
					c-0.9-0.3-1.8-0.7-2.6-1c-0.5-0.2-1-0.4-1.5-0.6c-1-0.4-2-0.8-3-1.2c-0.3-0.1-0.6-0.3-1-0.4c-1.3-0.5-2.6-1.1-3.8-1.7
					c-0.5-0.2-0.9-0.4-1.4-0.6c-0.9-0.4-1.8-0.8-2.7-1.3c-0.5-0.2-0.9-0.4-1.4-0.7c-1.1-0.5-2.2-1-3.2-1.6c-0.3-0.1-0.5-0.2-0.8-0.4
					c-1.3-0.7-2.7-1.4-4-2.1c-0.4-0.2-0.8-0.4-1.1-0.6c-1-0.5-2-1-2.9-1.6c-0.5-0.3-0.9-0.5-1.4-0.8c-0.9-0.5-1.9-1.1-2.8-1.6
					c-0.4-0.3-0.9-0.5-1.3-0.8c-0.9-0.5-1.9-1.1-2.8-1.7c-0.5-0.3-0.9-0.6-1.4-0.8c-1.3-0.8-2.6-1.6-3.9-2.4c0,0-0.1-0.1-0.1-0.1
					c-0.3-0.2-0.7-0.4-1-0.6c-1-0.7-2.1-1.3-3.1-2c-0.6-0.4-1.2-0.8-1.8-1.2c-0.7-0.5-1.5-1-2.2-1.5c-0.9-0.6-1.7-1.2-2.6-1.8
					c-0.6-0.4-1.1-0.8-1.7-1.2c-0.9-0.6-1.8-1.3-2.7-1.9c-0.5-0.4-1.1-0.8-1.6-1.2c-0.9-0.7-1.8-1.4-2.7-2.1c-0.5-0.4-1-0.8-1.5-1.2
					c-0.9-0.7-1.8-1.4-2.7-2.1c-0.5-0.4-0.9-0.7-1.4-1.1c-1.7-1.4-3.5-2.8-5.2-4.3c-0.2-0.1-0.3-0.3-0.5-0.4c-1.5-1.3-3-2.6-4.5-3.9
					c-0.4-0.4-0.9-0.8-1.3-1.1c-1.3-1.2-2.7-2.4-4-3.6c-0.3-0.3-0.7-0.6-1-0.9c-1.6-1.5-3.2-3-4.8-4.6c-0.5-0.5-1-1-1.5-1.5
					c-0.8-0.8-1.7-1.6-2.5-2.5c-0.6-0.6-1.1-1.1-1.7-1.7c-0.8-0.8-1.5-1.6-2.3-2.4c-0.6-0.6-1.1-1.2-1.7-1.8
					c-0.7-0.8-1.5-1.6-2.2-2.4c-0.6-0.6-1.1-1.2-1.7-1.8c-0.7-0.8-1.5-1.6-2.2-2.5c-0.5-0.6-1.1-1.2-1.6-1.8
					c-0.7-0.9-1.5-1.7-2.2-2.6c-0.5-0.6-1-1.2-1.5-1.8c-0.7-0.9-1.5-1.8-2.2-2.7c-0.5-0.6-0.9-1.1-1.4-1.7c-0.8-1-1.5-1.9-2.3-2.9
					c-0.4-0.5-0.8-1.1-1.2-1.6c-0.8-1-1.6-2.1-2.3-3.1c-0.4-0.5-0.7-1-1.1-1.5c-0.8-1.1-1.6-2.3-2.4-3.4c-0.3-0.4-0.6-0.9-0.9-1.3
					c-0.9-1.3-1.7-2.5-2.6-3.8c-0.2-0.3-0.4-0.6-0.7-1c-1-1.5-2-3.1-3-4.7c0-0.1-0.1-0.1-0.1-0.2c-1.1-1.7-2.1-3.3-3.1-5
					c-1-1.7-2-3.3-3-5c-0.2-0.3-0.4-0.6-0.5-1c-0.8-1.3-1.5-2.7-2.3-4c-0.3-0.6-0.6-1.1-0.9-1.7c-0.6-1.1-1.2-2.2-1.8-3.3
					c-0.4-0.7-0.7-1.4-1.1-2.1c-0.5-1-1-2-1.5-3c-0.7-1.4-1.4-2.8-2.1-4.3c-0.9-1.9-1.8-3.9-2.7-5.8c-0.3-0.6-0.6-1.3-0.8-1.9
					c-0.6-1.3-1.1-2.6-1.6-3.9c-0.3-0.8-0.6-1.5-0.9-2.3c-0.5-1.2-0.9-2.3-1.4-3.5c-0.3-0.8-0.6-1.6-0.9-2.4
					c-0.4-1.2-0.9-2.4-1.3-3.5c-0.2-0.6-0.4-1.2-0.7-1.9c-0.5-1.4-0.9-2.8-1.4-4.1c-0.1-0.4-0.3-0.9-0.4-1.3
					c-0.6-1.8-1.1-3.6-1.6-5.4c-0.1-0.4-0.2-0.9-0.4-1.3c-0.4-1.4-0.8-2.8-1.1-4.2c-0.1-0.4-0.2-0.9-0.3-1.3
					c-0.4-1.7-0.8-3.4-1.2-5.1c0,0,0-0.1,0-0.1c-0.4-1.7-0.7-3.4-1.1-5.1c-0.1-0.4-0.2-0.9-0.3-1.3c-0.3-1.7-0.6-3.3-0.9-4.9
					c0,0,0-0.1,0-0.1c-0.3-1.6-0.5-3.3-0.7-4.9c0-0.4-0.1-0.7-0.1-1.1c-0.2-1.6-0.4-3.2-0.5-4.8c0-0.3,0-0.5-0.1-0.8
					c-0.1-1.6-0.3-3.1-0.4-4.6c0-0.1,0-0.3,0-0.4c-0.1-1.6-0.2-3.2-0.2-4.8c0-0.3,0-0.6,0-0.9c0-1.5-0.1-3.1-0.1-4.6
					c0-0.3,0-0.5,0-0.8c0-1.6,0-3.1,0.1-4.6c0-0.1,0-0.3,0-0.4c0.1-1.5,0.1-2.9,0.2-4.4c0-0.2,0-0.4,0-0.6c0.1-1.5,0.2-2.9,0.4-4.4
					c0-0.3,0.1-0.5,0.1-0.8c0.2-1.4,0.3-2.8,0.5-4.2c0-0.3,0.1-0.5,0.1-0.7c0.2-1.4,0.4-2.9,0.7-4.3c0-0.1,0-0.1,0-0.2
					c0.3-1.4,0.5-2.8,0.8-4.1c0-0.2,0.1-0.4,0.1-0.6c0.3-1.3,0.6-2.7,1-4c0.1-0.3,0.1-0.5,0.2-0.8c0.4-1.3,0.7-2.6,1.1-3.9
					c0-0.2,0.1-0.3,0.1-0.5c0.4-1.2,0.8-2.4,1.2-3.6c0.1-0.2,0.1-0.4,0.2-0.6c0.4-1.2,0.9-2.4,1.4-3.6c0.1-0.3,0.2-0.5,0.3-0.8
					c0.5-1.2,0.9-2.3,1.4-3.5c0-0.1,0.1-0.1,0.1-0.2c0.5-1.2,1.1-2.4,1.6-3.5c0.1-0.3,0.3-0.6,0.4-0.9c0.5-1,1-2,1.5-3
					c0.1-0.2,0.2-0.3,0.3-0.5c0.6-1.1,1.2-2.2,1.9-3.2c0.2-0.3,0.4-0.7,0.6-1c0.5-0.8,1-1.6,1.5-2.3c0.2-0.3,0.5-0.7,0.7-1
					c0.6-0.9,1.2-1.7,1.8-2.6c0.1-0.2,0.3-0.4,0.4-0.6c0.8-1.1,1.6-2.2,2.5-3.3l-2.9,3.6c0,0-0.1,0.1-0.1,0.1
					c-0.1,0.1-0.2,0.2-0.3,0.4l-0.3,0.4c-0.2,0.2-0.4,0.5-0.6,0.7l-1.1,1.4c-0.2,0.2-0.3,0.4-0.5,0.7l-1.5,1.9
					c-0.2,0.3-0.4,0.5-0.6,0.7c-0.3,0.3-0.6,0.7-0.9,1.1c-2.4,3.9-4.5,8.1-6.4,12.4c-7.7,17.8-11.2,38.7-9.7,61.8
					c1.5,23.7,8.3,49.3,20.8,75.7C191.9,301.8,209.2,326.3,229.3,347.5z"/>
			</g>
			<g>
				<g class="st11">
					
						<image style="overflow:visible;" width="1413" height="1418" xlink:href="3231DC95.png"  transform="matrix(0.24 0 0 0.24 155.48 85.44)">
					</image>
				</g>
				<g class="st1">
					<linearGradient id="SVGID_9_" gradientUnits="userSpaceOnUse" x1="322.3716" y1="195.5984" x2="373.4874" y2="249.8121">
						<stop  offset="1.189230e-02" style="stop-color:#FFFF54"/>
						<stop  offset="2.123355e-02" style="stop-color:#F5E24E"/>
						<stop  offset="3.226719e-02" style="stop-color:#ECC749"/>
						<stop  offset="4.438196e-02" style="stop-color:#E6B345"/>
						<stop  offset="5.796051e-02" style="stop-color:#E1A442"/>
						<stop  offset="7.419629e-02" style="stop-color:#DE9C41"/>
						<stop  offset="0.1001" style="stop-color:#DD9940"/>
						<stop  offset="0.1431" style="stop-color:#D0863B"/>
						<stop  offset="0.2147" style="stop-color:#B65D31"/>
						<stop  offset="0.2154" style="stop-color:#B75F31"/>
						<stop  offset="0.2307" style="stop-color:#C87E39"/>
						<stop  offset="0.2476" style="stop-color:#D7993F"/>
						<stop  offset="0.267" style="stop-color:#E3AF44"/>
						<stop  offset="0.2898" style="stop-color:#EDC048"/>
						<stop  offset="0.3179" style="stop-color:#F3CB4B"/>
						<stop  offset="0.3573" style="stop-color:#F7D24D"/>
						<stop  offset="0.4667" style="stop-color:#F8D44D"/>
						<stop  offset="0.4819" style="stop-color:#EEC149"/>
						<stop  offset="0.5154" style="stop-color:#DA9D40"/>
						<stop  offset="0.5491" style="stop-color:#CA8139"/>
						<stop  offset="0.5828" style="stop-color:#BF6D35"/>
						<stop  offset="0.6165" style="stop-color:#B86132"/>
						<stop  offset="0.6501" style="stop-color:#B65D31"/>
						<stop  offset="0.7093" style="stop-color:#C77B38"/>
						<stop  offset="0.7962" style="stop-color:#DCA241"/>
						<stop  offset="0.8765" style="stop-color:#EBBD48"/>
						<stop  offset="0.947" style="stop-color:#F5CE4C"/>
						<stop  offset="1" style="stop-color:#F8D44D"/>
					</linearGradient>
					<path class="st12" d="M374.6,240.4c-4.1,0.1-9.5-4.1-13.6-11c-4.6-7.8-5.7-16.4-2.9-20.2l-17.4,23.7c-0.1,0.1-0.1,0.2-0.2,0.3
						c0.1-0.1,0.1-0.2,0.2-0.3c-2.6,3.8-0.1,8.6,4.5,8.5c-0.1,0-0.1,0-0.2,0c0.1,0,0.1,0,0.2,0L374.6,240.4z"/>
					<g>
						
							<linearGradient id="SVGID_10_" gradientUnits="userSpaceOnUse" x1="203.3564" y1="758.3764" x2="192.3977" y2="772.4174" gradientTransform="matrix(0.9475 0.3196 -0.3196 0.9475 426.6459 -565.503)">
							<stop  offset="0" style="stop-color:#FFFF7C"/>
							<stop  offset="1" style="stop-color:#F1B747"/>
						</linearGradient>
						<path class="st13" d="M377.4,239.4c-4,3.1-11.3-1.4-16.3-10c-5.1-8.6-5.9-18.1-2-21.2c4-3.1,11.3,1.4,16.3,10
							C380.5,226.8,381.3,236.3,377.4,239.4z"/>
						
							<linearGradient id="SVGID_11_" gradientUnits="userSpaceOnUse" x1="190.7825" y1="775.7679" x2="201.2672" y2="760.1477" gradientTransform="matrix(0.9475 0.3196 -0.3196 0.9475 426.6459 -565.503)">
							<stop  offset="0.16" style="stop-color:#FFFFFF;stop-opacity:0"/>
							<stop  offset="1" style="stop-color:#FFFFFF"/>
						</linearGradient>
						<path class="st14" d="M375.4,218.2c-5.1-8.6-12.4-13.1-16.3-10c-4,3.1-3.1,12.6,2,21.2c5.1,8.6,12.4,13.1,16.3,10
							C381.3,236.3,380.5,226.8,375.4,218.2z M377.2,239.1c-1.3,1-3,1.2-5,0.5c-3.7-1.2-7.7-5.1-10.8-10.4c-5-8.4-5.9-17.7-2.1-20.7
							c1.3-1,3-1.2,5-0.5c3.7,1.2,7.7,5.1,10.8,10.4C380,226.8,381,236.1,377.2,239.1z"/>
					</g>
					
						<linearGradient id="SVGID_12_" gradientUnits="userSpaceOnUse" x1="195.6928" y1="768.6104" x2="189.1306" y2="775.6305" gradientTransform="matrix(0.9475 0.3196 -0.3196 0.9475 426.6459 -565.503)">
						<stop  offset="2.086040e-02" style="stop-color:#7A0B21"/>
						<stop  offset="1" style="stop-color:#EE8D91;stop-opacity:0.6"/>
					</linearGradient>
					<path class="st15" d="M371.2,229.5l-6.4-11l-6.7,4.7c0.7,2.1,1.7,4.2,2.9,6.3c1,1.8,2.2,3.3,3.3,4.7L371.2,229.5z"/>
					
						<linearGradient id="SVGID_13_" gradientUnits="userSpaceOnUse" x1="256.6783" y1="691.6727" x2="267.9844" y2="702.5077" gradientTransform="matrix(0.9475 0.3196 -0.3196 0.9475 426.6459 -565.503)">
						<stop  offset="9.167660e-02" style="stop-color:#32A5FC"/>
						<stop  offset="0.2036" style="stop-color:#2490EC"/>
						<stop  offset="0.3911" style="stop-color:#1073D6"/>
						<stop  offset="0.5534" style="stop-color:#0461C8"/>
						<stop  offset="0.6711" style="stop-color:#005BC3"/>
						<stop  offset="0.7471" style="stop-color:#0867CC"/>
						<stop  offset="0.8825" style="stop-color:#1D85E4"/>
						<stop  offset="1" style="stop-color:#32A5FC"/>
					</linearGradient>
					<path class="st16" d="M536.7,127.3l-13.5,7.2c-2,1.1-4,2.1-6,3.2l-12,6.4c-2.4,1.3-4.8,2.5-7.2,3.8l-5.1,2.7
						c-12.8,6.8-26,13.8-39.3,20.8l-5.8,3.1c-22.9,12.1-45.7,24.2-66.5,35.2l-2.4,1.3c-4.6,2.4-9.2,4.8-13.5,7.2
						c-0.1,0-0.2,0.1-0.2,0.2c-0.2,0.1-0.3,0.3-0.5,0.6c0,0.1-0.1,0.2-0.1,0.2c-0.1,0.2-0.1,0.3-0.2,0.5c0,0,0,0,0,0.1
						c0,0.1,0,0.2,0,0.3c0,0.1,0,0.3,0,0.4c0,0,0,0.1,0,0.1c0,0.2,0,0.3,0,0.5c0,0.1,0,0.2,0,0.3c0,0,0,0,0,0.1
						c0,0.3,0.1,0.6,0.2,0.9c0,0,0,0,0,0c0,0.1,0.1,0.2,0.1,0.3c0.1,0.3,0.1,0.5,0.2,0.8c0,0,0,0,0,0c0,0,0,0.1,0,0.1
						c0.1,0.3,0.2,0.6,0.4,0.9c0.1,0.1,0.1,0.2,0.2,0.3c0.1,0.2,0.1,0.3,0.2,0.5c0.1,0.1,0.2,0.3,0.3,0.4c0.1,0.2,0.3,0.5,0.4,0.7
						c0,0.1,0.1,0.1,0.1,0.2c0.1,0.1,0.2,0.2,0.3,0.4c0.1,0.2,0.3,0.3,0.4,0.5c0.1,0.1,0.2,0.2,0.3,0.3c0.1,0.1,0.1,0.1,0.2,0.2
						c0.1,0.1,0.1,0.1,0.2,0.2c0.1,0.1,0.3,0.2,0.4,0.4c0.1,0,0.1,0.1,0.2,0.2c0.1,0.1,0.1,0.1,0.2,0.1c0.1,0.1,0.2,0.1,0.3,0.2
						c0.1,0,0.1,0.1,0.2,0.1c0.1,0,0.2,0.1,0.2,0.1c0.1,0.1,0.2,0.1,0.3,0.1c0,0,0.1,0,0.1,0.1c0.1,0,0.1,0,0.2,0
						c0.1,0,0.3,0.1,0.4,0.1c0,0,0.1,0,0.1,0c0.1,0,0.2,0,0.3,0c0.1,0,0.1,0,0.2,0c0.2,0,0.4-0.1,0.5-0.2l171.5-90.8L536.7,127.3z"
						/>
					<g class="st17">
						
							<image style="overflow:visible;" width="1452" height="1359" xlink:href="3231DC93.png"  transform="matrix(0.24 0 0 0.24 330.44 -16.56)">
						</image>
					</g>
					
						<linearGradient id="SVGID_14_" gradientUnits="userSpaceOnUse" x1="327.1113" y1="636.1392" x2="331.6496" y2="621.7791" gradientTransform="matrix(0.9475 0.3196 -0.3196 0.9475 426.6459 -565.503)">
						<stop  offset="0.2157" style="stop-color:#005BC3"/>
						<stop  offset="0.4777" style="stop-color:#157ADB"/>
						<stop  offset="0.6028" style="stop-color:#208BE8"/>
						<stop  offset="0.9699" style="stop-color:#32A5FC"/>
					</linearGradient>
					<path class="st18" d="M542.2,131c-1.8-3-4.4-4.6-5.8-3.5c-1.4,1.1-1.1,4.4,0.7,7.5c1.8,3,4.4,4.6,5.8,3.5
						C544.3,137.4,544,134,542.2,131z"/>
					<linearGradient id="SVGID_15_" gradientUnits="userSpaceOnUse" x1="535.5974" y1="132.9908" x2="543.8107" y2="132.9908">
						<stop  offset="0" style="stop-color:#FFFFFF;stop-opacity:0"/>
						<stop  offset="1" style="stop-color:#FFFFFF"/>
					</linearGradient>
					<path class="st19" d="M542.2,131c-1.8-3-4.4-4.6-5.8-3.5c-1.4,1.1-1.1,4.4,0.7,7.5c1.8,3,4.4,4.6,5.8,3.5
						C544.3,137.4,544,134,542.2,131z M542.7,138.2c-0.2,0.2-0.5,0.3-0.9,0.3c0,0,0,0,0,0c-1.4,0-3.1-1.5-4.4-3.7
						c-1.7-2.9-2-6.1-0.8-7.1c0.2-0.2,0.5-0.3,0.9-0.3c1.4,0,3.1,1.5,4.4,3.7C543.6,134,544,137.3,542.7,138.2z"/>
					
						<linearGradient id="SVGID_16_" gradientUnits="userSpaceOnUse" x1="334.9937" y1="679.9039" x2="305.2432" y2="649.9439" gradientTransform="matrix(0.9475 0.3196 -0.3196 0.9475 426.6459 -565.503)">
						<stop  offset="0" style="stop-color:#FFFF7C"/>
						<stop  offset="0.9125" style="stop-color:#F1B747"/>
					</linearGradient>
					<path class="st20" d="M539.8,151.2c1.5,6.4-0.9,14.7-14.3,19.8c-17.6,6.7-37.8-4.5-38.9-5.1l46.1-23.8
						C535.2,142.4,538.7,146.2,539.8,151.2z"/>
					<linearGradient id="SVGID_17_" gradientUnits="userSpaceOnUse" x1="502.3662" y1="183.5502" x2="526.9683" y2="137.0496">
						<stop  offset="0.3156" style="stop-color:#B65D31"/>
						<stop  offset="0.4308" style="stop-color:#B86132"/>
						<stop  offset="0.7257" style="stop-color:#BC6733"/>
						<stop  offset="0.9616" style="stop-color:#DD9940"/>
						<stop  offset="0.9762" style="stop-color:#E6AC44"/>
						<stop  offset="1" style="stop-color:#F8D44D"/>
					</linearGradient>
					<path class="st21" d="M526.2,171.3c13.4-5.1,15.8-13.4,14.3-19.8c0,0,0,0,0-0.1c-0.7-3.1-2.6-5.8-5-7.8l-0.3-0.2
						c0.2,0.2,0.4,0.4,0.6,0.6c0.1,0.1,0.1,0.1,0.2,0.2c0.1,0.1,0.3,0.3,0.4,0.5c0.1,0.1,0.2,0.2,0.2,0.3c0.1,0.2,0.3,0.3,0.4,0.5
						c0.1,0.1,0.1,0.2,0.2,0.3c0.2,0.2,0.3,0.4,0.4,0.7c0,0.1,0.1,0.1,0.1,0.2c0.2,0.3,0.4,0.6,0.5,1c0,0.1,0.1,0.2,0.1,0.2
						c0.1,0.3,0.2,0.5,0.4,0.8c0,0.1,0.1,0.2,0.1,0.4c0.1,0.2,0.2,0.5,0.3,0.7c0,0.1,0.1,0.3,0.1,0.4c0.1,0.3,0.2,0.7,0.3,1.1
						c0.1,0.3,0.1,0.7,0.2,1c0,0.1,0,0.1,0,0.2c0.1,0.4,0.1,0.8,0.1,1.2c0,0.2,0,0.4,0,0.5c0,0.2,0,0.5,0,0.7c0,0.5-0.1,1-0.1,1.5
						c0,0.2-0.1,0.3-0.1,0.5c-0.1,0.3-0.1,0.6-0.2,0.9c0,0.2-0.1,0.4-0.2,0.6c-0.1,0.3-0.2,0.6-0.3,0.9c-0.1,0.2-0.2,0.4-0.3,0.6
						c-0.1,0.2-0.2,0.4-0.3,0.6c-0.1,0.3-0.3,0.6-0.5,0.9c0,0.1-0.1,0.1-0.1,0.2c-0.2,0.4-0.5,0.8-0.8,1.2c0,0-0.1,0.1-0.1,0.1
						c-0.3,0.4-0.6,0.8-1,1.2c0,0,0,0,0,0c-0.4,0.4-0.8,0.8-1.2,1.2c0,0-0.1,0.1-0.1,0.1c-0.4,0.4-0.8,0.7-1.3,1.1
						c-0.1,0-0.1,0.1-0.2,0.1c-0.5,0.3-0.9,0.7-1.5,1c-0.1,0.1-0.2,0.1-0.3,0.2c-0.5,0.3-1.1,0.7-1.7,1c0,0,0,0-0.1,0
						c-0.6,0.3-1.2,0.6-1.8,0.9c-0.3,0.1-0.6,0.3-0.9,0.4c-0.6,0.2-1.1,0.5-1.8,0.7c-0.5,0.2-1,0.4-1.5,0.5
						c-0.8,0.3-1.7,0.5-2.5,0.7c-0.2,0-0.4,0.1-0.6,0.1c-0.2,0-0.5,0.1-0.7,0.1c-0.3,0.1-0.6,0.1-0.9,0.2c-0.2,0-0.5,0.1-0.7,0.1
						c-0.3,0-0.6,0.1-0.9,0.1c-0.2,0-0.5,0.1-0.7,0.1c-0.3,0-0.6,0.1-0.9,0.1c-0.2,0-0.4,0-0.7,0c-0.3,0-0.6,0-1,0
						c-0.2,0-0.4,0-0.6,0c-0.4,0-0.7,0-1.1,0c-0.2,0-0.4,0-0.5,0c-0.5,0-0.9,0-1.4-0.1c-0.1,0-0.1,0-0.2,0c-0.5,0-1-0.1-1.6-0.1
						c-0.2,0-0.3,0-0.5-0.1c-0.3,0-0.7-0.1-1-0.1c-0.2,0-0.4-0.1-0.6-0.1c-0.3,0-0.6-0.1-0.9-0.1c-0.2,0-0.4-0.1-0.6-0.1
						c-0.3,0-0.6-0.1-0.8-0.2c-0.2,0-0.4-0.1-0.6-0.1c-0.3-0.1-0.5-0.1-0.8-0.2c-0.2,0-0.4-0.1-0.6-0.1c-0.3-0.1-0.5-0.1-0.8-0.2
						c-0.2,0-0.4-0.1-0.6-0.2c-0.3-0.1-0.5-0.1-0.8-0.2c-0.2-0.1-0.4-0.1-0.6-0.2c-0.3-0.1-0.5-0.1-0.7-0.2
						c-0.2-0.1-0.4-0.1-0.6-0.2c-0.3-0.1-0.5-0.2-0.7-0.2c-0.2-0.1-0.3-0.1-0.5-0.2c-0.3-0.1-0.5-0.2-0.8-0.3
						c-0.1-0.1-0.3-0.1-0.4-0.2c-0.3-0.1-0.6-0.2-0.9-0.3c-0.1,0-0.2-0.1-0.3-0.1c-0.4-0.1-0.7-0.3-1.1-0.4c-0.1,0-0.2-0.1-0.2-0.1
						c-0.3-0.1-0.5-0.2-0.8-0.3c-0.1-0.1-0.3-0.1-0.4-0.2c-0.2-0.1-0.4-0.2-0.6-0.2c-0.1-0.1-0.3-0.1-0.4-0.2
						c-0.2-0.1-0.3-0.1-0.5-0.2c-0.1-0.1-0.2-0.1-0.4-0.2c-0.2-0.1-0.3-0.1-0.4-0.2c-0.1-0.1-0.2-0.1-0.3-0.2
						c-0.1-0.1-0.3-0.1-0.4-0.2c-0.1-0.1-0.2-0.1-0.3-0.1c-0.1-0.1-0.2-0.1-0.3-0.2c-0.1,0-0.2-0.1-0.3-0.1
						c-0.1-0.1-0.2-0.1-0.3-0.2c-0.1,0-0.2-0.1-0.2-0.1c-0.1,0-0.2-0.1-0.3-0.1c-0.1,0-0.1-0.1-0.2-0.1c-0.1,0-0.2-0.1-0.2-0.1
						c0,0-0.1,0-0.1-0.1c-0.1,0-0.1-0.1-0.2-0.1c0,0,0,0-0.1,0c-0.1,0-0.1-0.1-0.1-0.1l0.7,0.6C491.3,169.1,510.3,177.3,526.2,171.3
						z"/>
					<linearGradient id="SVGID_18_" gradientUnits="userSpaceOnUse" x1="511.2445" y1="182.259" x2="501.7257" y2="121.6851">
						<stop  offset="0" style="stop-color:#FFFF7C"/>
						<stop  offset="1" style="stop-color:#F1B747"/>
					</linearGradient>
					<path class="st22" d="M524.1,119.3c3.3,5.2,4.3,11.6,3.1,14.2l-44.6,23.6c0.1-1.5,2.7-29.8,17.8-40.7
						C511.9,108.1,519.8,112.7,524.1,119.3z"/>
					<linearGradient id="SVGID_19_" gradientUnits="userSpaceOnUse" x1="507.7624" y1="117.0122" x2="514.7876" y2="134.7502">
						<stop  offset="0" style="stop-color:#FFFF7C"/>
						<stop  offset="1" style="stop-color:#F1B747"/>
					</linearGradient>
					<path class="st23" d="M527.7,131.6c0,0.1,0,0.1,0,0.2c0,0.2,0,0.4-0.1,0.6c0,0,0,0.1,0,0.1c0,0.2-0.1,0.3-0.1,0.5c0,0,0,0,0,0
						c-0.1,0.2-0.1,0.4-0.2,0.5l0.6-0.8c0.7-3-0.4-9.2-3.4-13.9c-4.2-6.7-12.3-11.2-23.9-2.8c-1.5,1.1-2.9,2.4-4.2,3.9
						c-0.4,0.5-0.8,1-1.2,1.5l-1.2,1.7c1.9-2.6,4-4.9,6.5-6.7c0.6-0.4,1.2-0.8,1.8-1.2c0.1,0,0.1-0.1,0.2-0.1
						c0.6-0.3,1.1-0.6,1.6-0.9c0.1,0,0.2-0.1,0.3-0.1c0.5-0.3,1-0.5,1.5-0.7c0.1,0,0.2-0.1,0.3-0.1c0.5-0.2,1-0.4,1.5-0.5
						c0.1,0,0.1,0,0.2,0c0.6-0.2,1.1-0.3,1.6-0.4c0.1,0,0.1,0,0.2,0c0.3-0.1,0.6-0.1,0.9-0.1c0.1,0,0.2,0,0.3,0c0.2,0,0.4,0,0.6,0
						c0.1,0,0.2,0,0.3,0c0.2,0,0.4,0,0.5,0c0.1,0,0.2,0,0.3,0c0.1,0,0.2,0,0.3,0c0.1,0,0.3,0,0.4,0c0.1,0,0.2,0,0.3,0
						c0.1,0,0.3,0,0.4,0.1c0.1,0,0.2,0,0.3,0.1c0.1,0,0.3,0.1,0.4,0.1c0.1,0,0.2,0,0.3,0.1c0.1,0,0.3,0.1,0.4,0.1
						c0.1,0,0.2,0.1,0.3,0.1c0.1,0,0.3,0.1,0.4,0.1c0.1,0,0.2,0.1,0.3,0.1c0.1,0,0.2,0.1,0.3,0.1c0.1,0,0.2,0.1,0.3,0.2
						c0.1,0,0.2,0.1,0.3,0.1c0.1,0.1,0.3,0.1,0.4,0.2c0.1,0,0.2,0.1,0.3,0.1c0.2,0.1,0.4,0.3,0.7,0.4c0,0,0.1,0,0.1,0.1
						c0.3,0.2,0.6,0.4,0.9,0.6c0,0,0.1,0.1,0.1,0.1c0.5,0.4,0.9,0.8,1.3,1.2c0,0,0,0,0.1,0.1c0.5,0.5,0.9,1,1.4,1.6c0,0,0,0,0,0
						c0.4,0.6,0.8,1.1,1.2,1.7c0.4,0.7,0.8,1.3,1.1,2c0,0,0,0,0,0.1c0.2,0.4,0.4,0.8,0.6,1.2c0.1,0.1,0.1,0.2,0.2,0.4
						c0.1,0.4,0.3,0.7,0.4,1.1c0,0.1,0.1,0.2,0.1,0.2c0.2,0.7,0.4,1.4,0.6,2c0,0,0,0,0,0.1c0.1,0.5,0.2,1,0.3,1.5c0,0.1,0,0.2,0,0.3
						c0.1,0.4,0.1,0.8,0.2,1.2c0,0.1,0,0.1,0,0.2c0,0.3,0,0.5,0,0.7c0,0.1,0,0.3,0,0.4c0,0.1,0,0.3,0,0.4
						C527.7,131.2,527.7,131.4,527.7,131.6z"/>
				</g>
			</g>
			<g>
				<g class="st11">
					
						<image style="overflow:visible;" width="1413" height="1417" xlink:href="3231DC9C.png"  transform="matrix(0.24 0 0 0.24 204.44 108.48)">
					</image>
				</g>
				<g class="st1">
					
						<linearGradient id="SVGID_20_" gradientUnits="userSpaceOnUse" x1="241.3086" y1="573.3428" x2="292.4231" y2="627.5551" gradientTransform="matrix(0.9772 0.2124 -0.2124 0.9772 267.6095 -396.7275)">
						<stop  offset="1.189230e-02" style="stop-color:#FFFF54"/>
						<stop  offset="2.123355e-02" style="stop-color:#F5E24E"/>
						<stop  offset="3.226719e-02" style="stop-color:#ECC749"/>
						<stop  offset="4.438196e-02" style="stop-color:#E6B345"/>
						<stop  offset="5.796051e-02" style="stop-color:#E1A442"/>
						<stop  offset="7.419629e-02" style="stop-color:#DE9C41"/>
						<stop  offset="0.1001" style="stop-color:#DD9940"/>
						<stop  offset="0.1431" style="stop-color:#D0863B"/>
						<stop  offset="0.2147" style="stop-color:#B65D31"/>
						<stop  offset="0.2154" style="stop-color:#B75F31"/>
						<stop  offset="0.2307" style="stop-color:#C87E39"/>
						<stop  offset="0.2476" style="stop-color:#D7993F"/>
						<stop  offset="0.267" style="stop-color:#E3AF44"/>
						<stop  offset="0.2898" style="stop-color:#EDC048"/>
						<stop  offset="0.3179" style="stop-color:#F3CB4B"/>
						<stop  offset="0.3573" style="stop-color:#F7D24D"/>
						<stop  offset="0.4667" style="stop-color:#F8D44D"/>
						<stop  offset="0.4819" style="stop-color:#EEC149"/>
						<stop  offset="0.5154" style="stop-color:#DA9D40"/>
						<stop  offset="0.5491" style="stop-color:#CA8139"/>
						<stop  offset="0.5828" style="stop-color:#BF6D35"/>
						<stop  offset="0.6165" style="stop-color:#B86132"/>
						<stop  offset="0.6501" style="stop-color:#B65D31"/>
						<stop  offset="0.7093" style="stop-color:#C77B38"/>
						<stop  offset="0.7962" style="stop-color:#DCA241"/>
						<stop  offset="0.8765" style="stop-color:#EBBD48"/>
						<stop  offset="0.947" style="stop-color:#F5CE4C"/>
						<stop  offset="1" style="stop-color:#F8D44D"/>
					</linearGradient>
					<path class="st24" d="M423.2,269.6c-4-0.7-8.4-6-10.9-13.6c-2.8-8.6-2.1-17.2,1.4-20.4l-22,19.4c-0.1,0.1-0.2,0.2-0.3,0.3
						c0.1-0.1,0.2-0.2,0.3-0.3c-3.3,3.2-1.9,8.4,2.6,9.3c-0.1,0-0.1,0-0.2-0.1c0.1,0,0.1,0,0.2,0.1L423.2,269.6z"/>
					<g>
						
							<linearGradient id="SVGID_21_" gradientUnits="userSpaceOnUse" x1="247.5044" y1="1141.7124" x2="236.5459" y2="1155.7529" gradientTransform="matrix(0.858 0.5136 -0.5136 0.858 804.2258 -858.3774)">
							<stop  offset="0" style="stop-color:#FFFF7C"/>
							<stop  offset="1" style="stop-color:#F1B747"/>
						</linearGradient>
						<path class="st25" d="M426.1,269.3c-4.5,2.2-10.7-3.7-13.8-13.2c-3.1-9.5-2-19,2.6-21.1c4.5-2.2,10.7,3.7,13.8,13.2
							C431.8,257.6,430.6,267.1,426.1,269.3z"/>
						
							<linearGradient id="SVGID_22_" gradientUnits="userSpaceOnUse" x1="234.9308" y1="1159.1034" x2="245.4153" y2="1143.4836" gradientTransform="matrix(0.858 0.5136 -0.5136 0.858 804.2258 -858.3774)">
							<stop  offset="0.16" style="stop-color:#FFFFFF;stop-opacity:0"/>
							<stop  offset="1" style="stop-color:#FFFFFF"/>
						</linearGradient>
						<path class="st26" d="M428.7,248.1c-3.1-9.5-9.3-15.4-13.8-13.2c-4.5,2.2-5.7,11.7-2.6,21.1c3.1,9.5,9.3,15.4,13.8,13.2
							C430.6,267.1,431.8,257.6,428.7,248.1z M425.9,268.9c-1.5,0.7-3.2,0.5-5-0.6c-3.3-2-6.5-6.6-8.4-12.4
							c-3.1-9.3-2-18.6,2.4-20.7c1.5-0.7,3.2-0.5,5,0.6c3.3,2,6.5,6.6,8.4,12.4C431.4,257.6,430.3,266.8,425.9,268.9z"/>
					</g>
					
						<linearGradient id="SVGID_23_" gradientUnits="userSpaceOnUse" x1="239.841" y1="1151.9462" x2="233.2789" y2="1158.9661" gradientTransform="matrix(0.858 0.5136 -0.5136 0.858 804.2258 -858.3774)">
						<stop  offset="2.086040e-02" style="stop-color:#7A0B21"/>
						<stop  offset="1" style="stop-color:#EE8D91;stop-opacity:0.6"/>
					</linearGradient>
					<path class="st27" d="M422.2,258.3l-3.9-12.1l-7.6,3.2c0.3,2.2,0.8,4.5,1.5,6.7c0.6,1.9,1.4,3.7,2.2,5.3L422.2,258.3z"/>
					
						<linearGradient id="SVGID_24_" gradientUnits="userSpaceOnUse" x1="300.8238" y1="1075.009" x2="312.1309" y2="1085.8451" gradientTransform="matrix(0.858 0.5136 -0.5136 0.858 804.2258 -858.3774)">
						<stop  offset="9.167660e-02" style="stop-color:#32A5FC"/>
						<stop  offset="0.2036" style="stop-color:#2490EC"/>
						<stop  offset="0.3911" style="stop-color:#1073D6"/>
						<stop  offset="0.5534" style="stop-color:#0461C8"/>
						<stop  offset="0.6711" style="stop-color:#005BC3"/>
						<stop  offset="0.7471" style="stop-color:#0867CC"/>
						<stop  offset="0.8825" style="stop-color:#1D85E4"/>
						<stop  offset="1" style="stop-color:#32A5FC"/>
					</linearGradient>
					<path class="st28" d="M605.6,193.6l-14.8,4.1c-2.2,0.6-4.3,1.2-6.5,1.8l-13.1,3.7c-2.6,0.7-5.2,1.5-7.9,2.2l-5.5,1.5
						c-14,3.9-28.4,7.9-42.8,12l-6.4,1.8c-25,7-49.8,13.9-72.5,20.3l-2.7,0.7c-5,1.4-10,2.8-14.8,4.1c-0.1,0-0.2,0.1-0.3,0.1
						c-0.2,0.1-0.4,0.3-0.6,0.4c-0.1,0.1-0.1,0.1-0.2,0.2c-0.1,0.1-0.2,0.3-0.3,0.5c0,0,0,0,0,0.1c0,0.1-0.1,0.2-0.1,0.3
						c-0.1,0.1-0.1,0.3-0.1,0.4c0,0,0,0.1,0,0.1c0,0.2-0.1,0.3-0.1,0.5c0,0.1,0,0.2,0,0.3c0,0,0,0,0,0.1c0,0.3,0,0.6,0,0.9
						c0,0,0,0,0,0c0,0.1,0,0.2,0,0.3c0,0.3,0,0.5,0,0.8c0,0,0,0,0,0c0,0,0,0.1,0,0.1c0,0.3,0.1,0.7,0.2,1c0,0.1,0.1,0.3,0.1,0.4
						c0,0.2,0.1,0.3,0.1,0.5c0,0.2,0.1,0.3,0.2,0.5c0.1,0.3,0.2,0.5,0.3,0.8c0,0.1,0.1,0.1,0.1,0.2c0.1,0.1,0.1,0.3,0.2,0.4
						c0.1,0.2,0.2,0.4,0.3,0.6c0.1,0.1,0.1,0.3,0.2,0.4c0,0.1,0.1,0.2,0.1,0.2c0.1,0.1,0.1,0.1,0.2,0.2c0.1,0.2,0.2,0.3,0.3,0.4
						c0,0.1,0.1,0.1,0.1,0.2c0.1,0.1,0.1,0.1,0.2,0.2c0.1,0.1,0.2,0.2,0.3,0.3c0,0,0.1,0.1,0.1,0.1c0.1,0.1,0.1,0.1,0.2,0.2
						c0.1,0.1,0.2,0.1,0.3,0.2c0,0,0.1,0.1,0.1,0.1c0.1,0,0.1,0.1,0.2,0.1c0.1,0.1,0.2,0.1,0.4,0.2c0,0,0.1,0,0.1,0.1
						c0.1,0,0.2,0,0.2,0c0.1,0,0.1,0,0.2,0c0.2,0,0.4,0,0.6,0L609,205.9L605.6,193.6z"/>
					<g class="st17">
						
							<image style="overflow:visible;" width="1468" height="1316" xlink:href="3231DC9F.png"  transform="matrix(0.24 0 0 0.24 393.8 47.52)">
						</image>
					</g>
					
						<linearGradient id="SVGID_25_" gradientUnits="userSpaceOnUse" x1="371.2552" y1="1019.4771" x2="375.7934" y2="1005.1173" gradientTransform="matrix(0.858 0.5136 -0.5136 0.858 804.2258 -858.3774)">
						<stop  offset="0.2157" style="stop-color:#005BC3"/>
						<stop  offset="0.4777" style="stop-color:#157ADB"/>
						<stop  offset="0.6028" style="stop-color:#208BE8"/>
						<stop  offset="0.9699" style="stop-color:#32A5FC"/>
					</linearGradient>
					<path class="st29" d="M610.2,198.4c-1.1-3.3-3.3-5.4-4.9-4.7c-1.6,0.8-2,4.1-0.9,7.5c1.1,3.3,3.3,5.4,4.9,4.7
						C610.9,205.1,611.3,201.7,610.2,198.4z"/>
					
						<linearGradient id="SVGID_26_" gradientUnits="userSpaceOnUse" x1="454.5332" y1="510.7417" x2="462.7463" y2="510.7417" gradientTransform="matrix(0.9772 0.2124 -0.2124 0.9772 267.6095 -396.7275)">
						<stop  offset="0" style="stop-color:#FFFFFF;stop-opacity:0"/>
						<stop  offset="1" style="stop-color:#FFFFFF"/>
					</linearGradient>
					<path class="st30" d="M610.2,198.4c-1.1-3.3-3.3-5.4-4.9-4.7c-1.6,0.8-2,4.1-0.9,7.5c1.1,3.3,3.3,5.4,4.9,4.7
						C610.9,205.1,611.3,201.7,610.2,198.4z M609.2,205.6c-0.3,0.1-0.6,0.2-0.9,0.1c0,0,0,0,0,0c-1.3-0.3-2.8-2.1-3.6-4.6
						c-1-3.1-0.7-6.4,0.7-7.1c0.3-0.1,0.6-0.2,0.9-0.1c1.3,0.3,2.8,2.1,3.6,4.6C610.9,201.6,610.6,204.9,609.2,205.6z"/>
					
						<linearGradient id="SVGID_27_" gradientUnits="userSpaceOnUse" x1="379.1376" y1="1063.241" x2="349.3876" y2="1033.2814" gradientTransform="matrix(0.858 0.5136 -0.5136 0.858 804.2258 -858.3774)">
						<stop  offset="0" style="stop-color:#FFFF7C"/>
						<stop  offset="0.9125" style="stop-color:#F1B747"/>
					</linearGradient>
					<path class="st31" d="M603.5,217.6c0.1,6.6-4,14.2-18.2,16.3c-18.6,2.8-36-12.4-37-13.2l50.1-13.5
						C600.9,208,603.5,212.5,603.5,217.6z"/>
					
						<linearGradient id="SVGID_28_" gradientUnits="userSpaceOnUse" x1="421.3019" y1="561.2988" x2="445.9031" y2="514.8" gradientTransform="matrix(0.9772 0.2124 -0.2124 0.9772 267.6095 -396.7275)">
						<stop  offset="0.3156" style="stop-color:#B65D31"/>
						<stop  offset="0.4308" style="stop-color:#B86132"/>
						<stop  offset="0.7257" style="stop-color:#BC6733"/>
						<stop  offset="0.9616" style="stop-color:#DD9940"/>
						<stop  offset="0.9762" style="stop-color:#E6AC44"/>
						<stop  offset="1" style="stop-color:#F8D44D"/>
					</linearGradient>
					<path class="st32" d="M586,234.3c14.2-2.1,18.3-9.7,18.2-16.3c0,0,0,0,0-0.1c-0.1-3.2-1.3-6.2-3.2-8.7l-0.2-0.3
						c0.2,0.2,0.3,0.4,0.5,0.7c0.1,0.1,0.1,0.2,0.2,0.3c0.1,0.2,0.2,0.4,0.3,0.5c0.1,0.1,0.1,0.2,0.2,0.3c0.1,0.2,0.2,0.4,0.3,0.6
						c0.1,0.1,0.1,0.2,0.2,0.3c0.1,0.2,0.2,0.5,0.3,0.7c0,0.1,0.1,0.2,0.1,0.3c0.1,0.3,0.2,0.7,0.3,1.1c0,0.1,0,0.2,0.1,0.3
						c0.1,0.3,0.1,0.6,0.2,0.9c0,0.1,0,0.3,0.1,0.4c0,0.3,0.1,0.5,0.1,0.8c0,0.1,0,0.3,0,0.4c0,0.4,0.1,0.7,0.1,1.1
						c0,0.4,0,0.7,0,1.1c0,0.1,0,0.1,0,0.2c0,0.4-0.1,0.8-0.1,1.2c0,0.2-0.1,0.4-0.1,0.5c0,0.2-0.1,0.5-0.1,0.7
						c-0.1,0.5-0.3,1-0.5,1.5c-0.1,0.2-0.1,0.3-0.2,0.5c-0.1,0.3-0.2,0.6-0.4,0.8c-0.1,0.2-0.2,0.3-0.3,0.5
						c-0.1,0.3-0.3,0.5-0.5,0.8c-0.1,0.2-0.3,0.4-0.4,0.6c-0.1,0.2-0.3,0.4-0.4,0.6c-0.2,0.3-0.4,0.5-0.6,0.8
						c-0.1,0.1-0.1,0.1-0.2,0.2c-0.3,0.3-0.7,0.7-1,1c0,0-0.1,0.1-0.1,0.1c-0.4,0.3-0.8,0.7-1.2,1c0,0,0,0,0,0
						c-0.4,0.3-0.9,0.6-1.4,0.9c0,0-0.1,0-0.1,0.1c-0.5,0.3-1,0.5-1.5,0.8c-0.1,0-0.1,0.1-0.2,0.1c-0.5,0.2-1.1,0.5-1.6,0.7
						c-0.1,0-0.2,0.1-0.3,0.1c-0.6,0.2-1.2,0.4-1.9,0.6c0,0,0,0-0.1,0c-0.6,0.2-1.3,0.3-2,0.5c-0.3,0.1-0.6,0.1-1,0.2
						c-0.6,0.1-1.2,0.2-1.9,0.3c-0.5,0.1-1.1,0.1-1.6,0.2c-0.9,0.1-1.7,0.1-2.6,0.1c-0.2,0-0.4,0-0.7,0c-0.2,0-0.5,0-0.7,0
						c-0.3,0-0.6,0-0.9,0c-0.2,0-0.5,0-0.7,0c-0.3,0-0.6-0.1-0.9-0.1c-0.2,0-0.5,0-0.7-0.1c-0.3,0-0.6-0.1-0.9-0.1
						c-0.2,0-0.4-0.1-0.7-0.1c-0.3-0.1-0.6-0.1-1-0.2c-0.2,0-0.4-0.1-0.6-0.1c-0.3-0.1-0.7-0.2-1-0.2c-0.2,0-0.4-0.1-0.5-0.1
						c-0.5-0.1-0.9-0.2-1.4-0.4c-0.1,0-0.1,0-0.2,0c-0.5-0.1-1-0.3-1.5-0.5c-0.2-0.1-0.3-0.1-0.5-0.2c-0.3-0.1-0.7-0.2-1-0.3
						c-0.2-0.1-0.4-0.1-0.6-0.2c-0.3-0.1-0.6-0.2-0.8-0.3c-0.2-0.1-0.4-0.2-0.6-0.2c-0.3-0.1-0.5-0.2-0.8-0.3
						c-0.2-0.1-0.4-0.2-0.6-0.3c-0.3-0.1-0.5-0.2-0.8-0.3c-0.2-0.1-0.4-0.2-0.6-0.3c-0.2-0.1-0.5-0.2-0.7-0.3
						c-0.2-0.1-0.4-0.2-0.6-0.3c-0.2-0.1-0.5-0.2-0.7-0.4c-0.2-0.1-0.4-0.2-0.5-0.3c-0.2-0.1-0.5-0.2-0.7-0.4
						c-0.2-0.1-0.3-0.2-0.5-0.3c-0.2-0.1-0.5-0.3-0.7-0.4c-0.2-0.1-0.3-0.2-0.5-0.3c-0.2-0.1-0.5-0.3-0.7-0.4
						c-0.1-0.1-0.3-0.2-0.4-0.2c-0.3-0.2-0.5-0.3-0.8-0.5c-0.1-0.1-0.2-0.1-0.3-0.2c-0.3-0.2-0.7-0.4-1-0.6c-0.1,0-0.1-0.1-0.2-0.1
						c-0.2-0.2-0.5-0.3-0.7-0.5c-0.1-0.1-0.2-0.2-0.3-0.2c-0.2-0.1-0.3-0.2-0.5-0.4c-0.1-0.1-0.2-0.2-0.3-0.2
						c-0.1-0.1-0.3-0.2-0.4-0.3c-0.1-0.1-0.2-0.2-0.3-0.2c-0.1-0.1-0.3-0.2-0.4-0.3c-0.1-0.1-0.2-0.2-0.3-0.2
						c-0.1-0.1-0.2-0.2-0.3-0.3c-0.1-0.1-0.2-0.1-0.3-0.2c-0.1-0.1-0.2-0.2-0.3-0.2c-0.1-0.1-0.2-0.1-0.2-0.2
						c-0.1-0.1-0.2-0.1-0.3-0.2c-0.1-0.1-0.1-0.1-0.2-0.2c-0.1-0.1-0.2-0.1-0.2-0.2c-0.1,0-0.1-0.1-0.1-0.1
						c-0.1-0.1-0.1-0.1-0.2-0.2c0,0-0.1-0.1-0.1-0.1c-0.1-0.1-0.1-0.1-0.2-0.1c0,0,0,0,0,0c-0.1,0-0.1-0.1-0.1-0.1l0.6,0.7
						C552.3,224.8,569.2,236.9,586,234.3z"/>
					
						<linearGradient id="SVGID_29_" gradientUnits="userSpaceOnUse" x1="430.1801" y1="560.0065" x2="420.6617" y2="499.4352" gradientTransform="matrix(0.9772 0.2124 -0.2124 0.9772 267.6095 -396.7275)">
						<stop  offset="0" style="stop-color:#FFFF7C"/>
						<stop  offset="1" style="stop-color:#F1B747"/>
					</linearGradient>
					<path class="st33" d="M594.9,183.1c2.1,5.8,1.8,12.3,0.1,14.6l-48.6,13.6c0.4-1.4,8.9-28.5,26-36
						C585.5,169.5,592.2,175.7,594.9,183.1z"/>
					
						<linearGradient id="SVGID_30_" gradientUnits="userSpaceOnUse" x1="426.6989" y1="494.7625" x2="433.7241" y2="512.5006" gradientTransform="matrix(0.9772 0.2124 -0.2124 0.9772 267.6095 -396.7275)">
						<stop  offset="0" style="stop-color:#FFFF7C"/>
						<stop  offset="1" style="stop-color:#F1B747"/>
					</linearGradient>
					<path class="st34" d="M595.8,195.8c0,0.1,0,0.1-0.1,0.2c-0.1,0.2-0.1,0.4-0.2,0.6c0,0,0,0.1,0,0.1c-0.1,0.2-0.1,0.3-0.2,0.5
						c0,0,0,0,0,0c-0.1,0.2-0.2,0.3-0.3,0.5l0.7-0.7c1.4-2.8,1.5-9.1-0.4-14.3c-2.7-7.4-9.7-13.5-22.7-7.8c-1.7,0.8-3.4,1.7-4.9,2.9
						c-0.5,0.4-1,0.8-1.5,1.2l-1.6,1.4c2.4-2.1,5-3.9,7.8-5.1c0.7-0.3,1.3-0.6,2-0.8c0.1,0,0.2-0.1,0.2-0.1c0.6-0.2,1.2-0.4,1.8-0.6
						c0.1,0,0.2-0.1,0.3-0.1c0.6-0.2,1.1-0.3,1.7-0.4c0.1,0,0.2,0,0.3,0c0.5-0.1,1.1-0.2,1.6-0.2c0.1,0,0.1,0,0.2,0
						c0.6,0,1.1-0.1,1.7-0.1c0.1,0,0.1,0,0.2,0c0.3,0,0.6,0,0.9,0.1c0.1,0,0.2,0,0.3,0c0.2,0,0.4,0.1,0.6,0.1c0.1,0,0.2,0,0.3,0
						c0.2,0,0.4,0.1,0.5,0.1c0.1,0,0.2,0,0.3,0.1c0.1,0,0.2,0.1,0.3,0.1c0.1,0,0.3,0.1,0.4,0.1c0.1,0,0.2,0.1,0.3,0.1
						c0.1,0.1,0.3,0.1,0.4,0.2c0.1,0,0.2,0.1,0.3,0.1c0.1,0.1,0.3,0.1,0.4,0.2c0.1,0,0.2,0.1,0.3,0.1c0.1,0.1,0.3,0.1,0.4,0.2
						c0.1,0,0.2,0.1,0.3,0.2c0.1,0.1,0.2,0.1,0.3,0.2c0.1,0.1,0.2,0.1,0.3,0.2c0.1,0.1,0.2,0.1,0.3,0.2c0.1,0.1,0.2,0.1,0.3,0.2
						c0.1,0.1,0.2,0.1,0.3,0.2c0.1,0.1,0.2,0.2,0.4,0.3c0.1,0.1,0.2,0.1,0.2,0.2c0.2,0.2,0.4,0.4,0.6,0.5c0,0,0,0,0.1,0.1
						c0.3,0.3,0.5,0.5,0.7,0.8c0,0,0.1,0.1,0.1,0.1c0.4,0.5,0.7,0.9,1.1,1.5c0,0,0,0,0,0.1c0.4,0.6,0.7,1.2,1,1.8c0,0,0,0,0,0
						c0.3,0.6,0.6,1.3,0.8,2c0.3,0.7,0.5,1.5,0.7,2.2c0,0,0,0,0,0.1c0.1,0.4,0.2,0.9,0.3,1.3c0,0.1,0,0.3,0.1,0.4
						c0.1,0.4,0.1,0.8,0.2,1.1c0,0.1,0,0.2,0,0.2c0.1,0.7,0.1,1.4,0.2,2.1c0,0,0,0,0,0.1c0,0.5,0,1,0,1.5c0,0.1,0,0.2,0,0.3
						c0,0.4,0,0.8-0.1,1.2c0,0.1,0,0.1,0,0.2c0,0.2-0.1,0.5-0.1,0.7c0,0.1-0.1,0.3-0.1,0.4c0,0.1-0.1,0.3-0.1,0.4
						C595.9,195.5,595.9,195.7,595.8,195.8z"/>
				</g>
			</g>
		</g>
		<g>
			<path class="st35" d="M436,99l1.7,3.1c0.6,1.1,1.4,2,2.5,2.6l3,1.7c0.1,0.1,0.1,0.2,0,0.3l-3,1.7c-1.1,0.6-1.9,1.5-2.5,2.6
				l-1.7,3.1c-0.1,0.1-0.2,0.1-0.3,0l-1.7-3.1c-0.6-1.1-1.4-2-2.5-2.6l-3-1.7c-0.1-0.1-0.1-0.2,0-0.3l3-1.7c1.1-0.6,1.9-1.5,2.5-2.6
				l1.7-3.1C435.8,98.9,436,98.9,436,99z"/>
			<path class="st35" d="M131,291.2l1.7,3.1c0.6,1.1,1.5,2,2.6,2.6l3.1,1.7c0.1,0.1,0.1,0.2,0,0.3l-3.1,1.7c-1.1,0.6-2,1.5-2.6,2.6
				l-1.7,3.1c-0.1,0.1-0.2,0.1-0.3,0l-1.7-3.1c-0.6-1.1-1.5-2-2.6-2.6l-3.1-1.7c-0.1-0.1-0.1-0.2,0-0.3l3.1-1.7
				c1.1-0.6,2-1.5,2.6-2.6l1.7-3.1C130.8,291.1,130.9,291.1,131,291.2z"/>
			<path class="st35" d="M529.3,245.7l1.7,3.1c0.6,1.1,1.5,2,2.6,2.6l3.1,1.7c0.1,0.1,0.1,0.2,0,0.3l-3.1,1.7
				c-1.1,0.6-2,1.5-2.6,2.6l-1.7,3.1c-0.1,0.1-0.2,0.1-0.3,0l-1.7-3.1c-0.6-1.1-1.5-2-2.6-2.6l-3.1-1.7c-0.1-0.1-0.1-0.2,0-0.3
				l3.1-1.7c1.1-0.6,2-1.5,2.6-2.6l1.7-3.1C529.1,245.6,529.3,245.6,529.3,245.7z"/>
			<path class="st35" d="M99.8,168l0.6,1.2c0.2,0.4,0.6,0.8,1,1l1.2,0.6c0,0,0,0.1,0,0.1l-1.2,0.6c-0.4,0.2-0.8,0.6-1,1l-0.6,1.2
				c0,0-0.1,0-0.1,0l-0.6-1.2c-0.2-0.4-0.6-0.8-1-1l-1.2-0.6c0,0,0-0.1,0-0.1l1.2-0.6c0.4-0.2,0.8-0.6,1-1l0.6-1.2
				C99.8,168,99.8,168,99.8,168z"/>
			<path class="st35" d="M465,127.7l0.8,1.5c0.3,0.5,0.7,1,1.3,1.3l1.5,0.8c0.1,0,0.1,0.1,0,0.1l-1.5,0.8c-0.5,0.3-1,0.7-1.3,1.3
				l-0.8,1.5c0,0.1-0.1,0.1-0.1,0l-0.8-1.5c-0.3-0.5-0.7-1-1.3-1.3l-1.5-0.8c-0.1,0-0.1-0.1,0-0.1l1.5-0.8c0.5-0.3,1-0.7,1.3-1.3
				l0.8-1.5C464.9,127.7,464.9,127.7,465,127.7z"/>
			<path class="st35" d="M526.5,70l0.8,1.5c0.3,0.5,0.7,1,1.3,1.3l1.5,0.8c0.1,0,0.1,0.1,0,0.1l-1.5,0.8c-0.5,0.3-1,0.7-1.3,1.3
				l-0.8,1.5c0,0.1-0.1,0.1-0.1,0l-0.8-1.5c-0.3-0.5-0.7-1-1.3-1.3l-1.5-0.8c-0.1,0-0.1-0.1,0-0.1l1.5-0.8c0.5-0.3,1-0.7,1.3-1.3
				l0.8-1.5C526.3,70,526.4,70,526.5,70z"/>
			<path class="st35" d="M102.8,274.1l1.2,2.2c0.4,0.8,1,1.4,1.8,1.8l2.2,1.2c0.1,0,0.1,0.2,0,0.2l-2.2,1.2c-0.8,0.4-1.4,1-1.8,1.8
				l-1.2,2.2c0,0.1-0.2,0.1-0.2,0l-1.2-2.2c-0.4-0.8-1-1.4-1.8-1.8l-2.2-1.2c-0.1,0-0.1-0.2,0-0.2l2.2-1.2c0.8-0.4,1.4-1,1.8-1.8
				l1.2-2.2C102.6,274.1,102.8,274.1,102.8,274.1z"/>
			<path class="st35" d="M506.7,198.1c0,1-0.8,1.7-1.7,1.7s-1.7-0.8-1.7-1.7c0-1,0.8-1.7,1.7-1.7S506.7,197.1,506.7,198.1z"/>
			<path class="st35" d="M99.4,239.5c0,0.7-0.6,1.3-1.3,1.3c-0.7,0-1.3-0.6-1.3-1.3c0-0.7,0.6-1.3,1.3-1.3
				C98.9,238.2,99.4,238.8,99.4,239.5z"/>
			<path class="st35" d="M180.8,372c0,1-0.8,1.7-1.7,1.7c-1,0-1.7-0.8-1.7-1.7c0-1,0.8-1.7,1.7-1.7C180.1,370.3,180.8,371,180.8,372
				z"/>
			<path class="st35" d="M131.4,333.3c0,0.4-0.3,0.7-0.7,0.7c-0.4,0-0.7-0.3-0.7-0.7c0-0.4,0.3-0.7,0.7-0.7
				C131.1,332.6,131.4,332.9,131.4,333.3z"/>
			<circle class="st35" cx="141.5" cy="328.4" r="0.7"/>
			<path class="st35" d="M114.8,179.2c0,0.4-0.3,0.7-0.7,0.7c-0.4,0-0.7-0.3-0.7-0.7c0-0.4,0.3-0.7,0.7-0.7
				C114.5,178.5,114.8,178.8,114.8,179.2z"/>
			<path class="st35" d="M159.3,104.5c0,0.7-0.6,1.3-1.3,1.3s-1.3-0.6-1.3-1.3c0-0.7,0.6-1.3,1.3-1.3S159.3,103.8,159.3,104.5z"/>
			<path class="st35" d="M384.6,66.8c0.6,0.4,0.6,1.2,0.2,1.8c-0.4,0.6-1.2,0.6-1.8,0.2c-0.6-0.4-0.6-1.2-0.2-1.8
				C383.3,66.5,384.1,66.4,384.6,66.8z"/>
			<path class="st35" d="M76.2,324.3c1,0.8,1.2,2.3,0.4,3.3c-0.8,1-2.3,1.2-3.3,0.4c-1-0.8-1.2-2.3-0.4-3.3
				C73.7,323.6,75.2,323.5,76.2,324.3z"/>
			<path class="st35" d="M387.4,60.5c0,0.4-0.3,0.7-0.7,0.7c-0.4,0-0.7-0.3-0.7-0.7c0-0.4,0.3-0.7,0.7-0.7
				C387.1,59.8,387.4,60.1,387.4,60.5z"/>
			<path class="st35" d="M104.6,343.9c0,0.7-0.6,1.3-1.3,1.3s-1.3-0.6-1.3-1.3c0-0.7,0.6-1.3,1.3-1.3S104.6,343.2,104.6,343.9z"/>
			<path class="st35" d="M515.7,191.5c0,0.4-0.3,0.7-0.7,0.7c-0.4,0-0.7-0.3-0.7-0.7c0-0.4,0.3-0.7,0.7-0.7
				C515.4,190.8,515.7,191.1,515.7,191.5z"/>
			<path class="st35" d="M100.9,243.9c0,0.4-0.3,0.7-0.7,0.7c-0.4,0-0.7-0.3-0.7-0.7c0-0.4,0.3-0.7,0.7-0.7
				C100.5,243.2,100.9,243.5,100.9,243.9z"/>
			<path class="st35" d="M655.8,159.3l0.6,1.2c0.2,0.4,0.6,0.8,1,1l1.2,0.6c0,0,0,0.1,0,0.1l-1.2,0.6c-0.4,0.2-0.8,0.6-1,1l-0.6,1.2
				c0,0-0.1,0-0.1,0l-0.6-1.2c-0.2-0.4-0.6-0.8-1-1l-1.2-0.6c0,0,0-0.1,0-0.1l1.2-0.6c0.4-0.2,0.8-0.6,1-1l0.6-1.2
				C655.7,159.3,655.8,159.3,655.8,159.3z"/>
			<path class="st35" d="M604.3,78.9c0,1-0.8,1.7-1.7,1.7c-1,0-1.7-0.8-1.7-1.7s0.8-1.7,1.7-1.7C603.5,77.2,604.3,77.9,604.3,78.9z"
				/>
			<path class="st35" d="M670.7,170.5c0,0.4-0.3,0.7-0.7,0.7c-0.4,0-0.7-0.3-0.7-0.7c0-0.4,0.3-0.7,0.7-0.7
				C670.4,169.8,670.7,170.1,670.7,170.5z"/>
			<path class="st35" d="M615,118.2c0.6,0.4,0.6,1.2,0.2,1.8c-0.4,0.6-1.2,0.6-1.8,0.2c-0.6-0.4-0.6-1.2-0.2-1.8
				C613.7,117.9,614.5,117.8,615,118.2z"/>
			<path class="st35" d="M610.1,115.4c0,0.4-0.3,0.7-0.7,0.7c-0.4,0-0.7-0.3-0.7-0.7c0-0.4,0.3-0.7,0.7-0.7
				C609.8,114.7,610.1,115,610.1,115.4z"/>
			<path class="st35" d="M577.6,157.2c0,0.4-0.3,0.7-0.7,0.7c-0.4,0-0.7-0.3-0.7-0.7c0-0.4,0.3-0.7,0.7-0.7
				C577.3,156.5,577.6,156.8,577.6,157.2z"/>
			<path class="st35" d="M590.9,276.4l1.7,3.1c0.6,1.1,1.5,2,2.6,2.6l3.1,1.7c0.1,0.1,0.1,0.2,0,0.3l-3.1,1.7
				c-1.1,0.6-2,1.5-2.6,2.6l-1.7,3.1c-0.1,0.1-0.2,0.1-0.3,0l-1.7-3.1c-0.6-1.1-1.5-2-2.6-2.6l-3.1-1.7c-0.1-0.1-0.1-0.2,0-0.3
				l3.1-1.7c1.1-0.6,2-1.5,2.6-2.6l1.7-3.1C590.6,276.3,590.8,276.3,590.9,276.4z"/>
			<path class="st35" d="M548.6,305.6c0.6,0.4,0.6,1.2,0.2,1.8c-0.4,0.6-1.2,0.6-1.8,0.2c-0.6-0.4-0.6-1.2-0.2-1.8
				C547.3,305.2,548.1,305.2,548.6,305.6z"/>
			<path class="st35" d="M578.4,372.3c1,0.8,1.2,2.3,0.4,3.3c-0.8,1-2.3,1.2-3.3,0.4c-1-0.8-1.2-2.3-0.4-3.3
				C575.9,371.6,577.4,371.5,578.4,372.3z"/>
			<path class="st35" d="M628.1,295.1c0,0.7-0.6,1.3-1.3,1.3s-1.3-0.6-1.3-1.3c0-0.7,0.6-1.3,1.3-1.3S628.1,294.4,628.1,295.1z"/>
		</g>
	</g>
</g>
</svg>
